<svg id="Capa_1" data-name="Capa 1" xmlns="http://www.w3.org/2000/svg" viewBox="0 0 653.91 186.99"><defs>
<style>
    .cls-1{fill:#7e6831;}
    .cls-2{fill:#058c45;}
    .cls-3{fill:#4e9ed7;}
    .cls-4{fill:#ed8d20;}
    .cls-5{fill:#e65b26;}
    .cls-6{fill:#1a6dab;}
    .cls-7{fill:#894116;}
    .cls-8{fill:#b45f2b;}
    .cls-9{fill:#8a4218;}
    .cls-10{fill:#b45f2c;}
    .cls-11{fill:#8b441a;}
    .cls-12{fill:#363536;}
</style>
</defs><title>Sin título-1</title><path class="cls-1" d="M700.65,930.84a59.83,59.83,0,0,1-8.2,11.63c.36.51.74,1,1.13,1.5a8.13,8.13,0,0,1,.75.9c3.95-3.72,7.1-5.73,11.41-5.74h.06c6.48,0,10.43,4.46,15.44,10.1a112.54,112.54,0,0,0,8.12,8.49,110.58,110.58,0,0,0,11.08-4.41Z" transform="translate(-572.59 -820.51)"/><path class="cls-2" d="M612.87,896.7c-.16.6,1,1.27,1.75,1.85a7.82,7.82,0,0,0,3-1.55c-.9-.4-1.42-1.71-2.57-1.62a3.74,3.74,0,0,0-1.7.84C613,896.44,612.9,896.56,612.87,896.7Z" transform="translate(-572.59 -820.51)"/><path class="cls-2" d="M615.76,877.2a.9.9,0,0,0,.11.65,1.79,1.79,0,0,0,.78.54,1.75,1.75,0,0,1,1.19,1.24,1.52,1.52,0,0,1-.17,1l.24,0c.43.08,1.15.2,1.26.9a1,1,0,0,1-.43.94,2,2,0,0,1,.45.72,1.86,1.86,0,0,1-.06,1.25c-.11.38-.16.45-.13.49s.85-.71,1.4-.91a16.38,16.38,0,0,0-4.7-7.7A2.46,2.46,0,0,1,615.76,877.2Z" transform="translate(-572.59 -820.51)"/><path class="cls-2" d="M618.92,886.41c-.14.23,0,.69.1,1.61,0,.15,0,.28.06.38.08.5,0,.56.06.66.17.41,1.17.06,1.69.42a16,16,0,0,0-.07-3.58C620.21,886.44,619.23,885.9,618.92,886.41Z" transform="translate(-572.59 -820.51)"/><path class="cls-2" d="M616.9,894.07c0,.51,1.33.75,2.17,1.14l.08-.14a13.61,13.61,0,0,0,1.28-3.31c-.55-.07-1.07-1.65-1.71-1.52-.3.06-.26.39-.89.84a1.58,1.58,0,0,0-.74.85,1.3,1.3,0,0,0,0,.75,2.18,2.18,0,0,1,0,.79C617,893.84,616.9,893.9,616.9,894.07Z" transform="translate(-572.59 -820.51)"/><path class="cls-2" d="M620.85,903.49c-.43,0-.66.91-.73,1.17-.49,1.78-1.42,3.42-2,5.17-1.1,3.2-1.15,3.31-1.34,3.57s-.58.69-.52,1.11a1.77,1.77,0,0,0,2.1,1.09,1.64,1.64,0,0,0,.81-.68,8,8,0,0,0,1.21-2.91c.4-1.62.62-1.26,1.82-4.89.3-.9.62-1.93.16-2.54a5.61,5.61,0,0,0-.93-.81C621.05,903.51,620.94,903.48,620.85,903.49Z" transform="translate(-572.59 -820.51)"/><path class="cls-2" d="M611.77,873.87a2.45,2.45,0,0,0,.53.7,2,2,0,0,0,1.23.37,4,4,0,0,1,.75.09,9.45,9.45,0,0,0-3-1.84A2.29,2.29,0,0,1,611.77,873.87Z" transform="translate(-572.59 -820.51)"/><path class="cls-2" d="M594.82,874.29c.28.24,1-.7,2-.72,1.63,0,2.9,2.56,3.12,2.42s-1.17-1.92-.82-3.38a16.07,16.07,0,0,0-3.05-.15,8.69,8.69,0,0,0-1,.13C595.17,873.24,594.56,874.06,594.82,874.29Z" transform="translate(-572.59 -820.51)"/><path class="cls-2" d="M605.13,877.53c.57.16,2.06-4.91,3.5-4.75a1.12,1.12,0,0,1,.74.63,1.74,1.74,0,0,1,.89-.49l-.15,0a10.84,10.84,0,0,0-2.87-.1,11.45,11.45,0,0,0-2,.44C605.32,874.69,604.71,877.41,605.13,877.53Z" transform="translate(-572.59 -820.51)"/><path class="cls-2" d="M590,877.69c.12,0,0-.41.35-.93a2.45,2.45,0,0,1,.46-.54,2.11,2.11,0,0,1,.43-.3c.38-.19.57-.12.62-.21s-.88-.72-1.41-1.36a14.35,14.35,0,0,0-1.52,1.08C589.36,876.36,589.76,877.74,590,877.69Z" transform="translate(-572.59 -820.51)"/><path class="cls-2" d="M594.58,889.91a3.26,3.26,0,0,0,3.18-.34,3.44,3.44,0,0,0,1.3-2.41,3.18,3.18,0,0,0-.63-2.47c-1.27-1.39-3.65-.55-4.06-.41a2.69,2.69,0,0,0-1.64,1.2,2.45,2.45,0,0,0-.17,1.36A3.75,3.75,0,0,0,594.58,889.91Zm2.06-3.73a.47.47,0,1,1,0,.93.47.47,0,1,1,0-.93Z" transform="translate(-572.59 -820.51)"/><path class="cls-2" d="M593.23,925.65A5.93,5.93,0,0,0,594,922c-.16-2.33-1.27-2.79-2.1-5.81-.43-1.55-.14-1.46-.65-4.28s-1.27-5.69-1.45-5.65,0,.28.73,6.05c.44,3.35.68,5.07,1.61,6.86a11.7,11.7,0,0,1,.73,1.46A11,11,0,0,1,593.23,925.65Z" transform="translate(-572.59 -820.51)"/><path class="cls-2" d="M601.23,877.83a.38.38,0,0,0,.2,0,1.51,1.51,0,0,1,1,0,2.41,2.41,0,0,1,1.36,1.86,2.93,2.93,0,0,0,.58-1.19c.19-.84-.13-1.31-.52-3a7.64,7.64,0,0,1-.26-1.94,4.3,4.3,0,0,1-.79,0,11.43,11.43,0,0,1-1.92-.56s-.23-.07-.62-.15a26,26,0,0,0,.36,4.21A1.51,1.51,0,0,0,601.23,877.83Z" transform="translate(-572.59 -820.51)"/><path class="cls-2" d="M592.3,875.3a2.34,2.34,0,0,0,1.08-.2l.2-.11.2-.12c.36-.2.47-.2.54-.29s-.11-.51-.29-1a4.33,4.33,0,0,1-.19-.75,12.29,12.29,0,0,0-2.38.93C591.64,874.45,591.82,875.21,592.3,875.3Z" transform="translate(-572.59 -820.51)"/><path class="cls-2" d="M625.41,904.3a2.78,2.78,0,0,0,2.91.24,1.7,1.7,0,0,0,.76-.85c.3-.85-.4-1.74-.93-2.42a6,6,0,0,0-3.23-2.18c-.63-.16-1.43-.37-1.73,0-.18.21-.15.57.89,2.87C624.94,903.88,625.13,904.1,625.41,904.3Z" transform="translate(-572.59 -820.51)"/><path class="cls-2" d="M590.55,897.55a9.87,9.87,0,0,0,1,.57c1.55.8,2.42.83,3.28,1.53a.86.86,0,0,0-.17-1.06c-.29-.32-.61-.34-1.32-.36a6.8,6.8,0,0,1-2.62-.61Z" transform="translate(-572.59 -820.51)"/><path class="cls-2" d="M594.33,853.67l0,0,.12,0Z" transform="translate(-572.59 -820.51)"/><path class="cls-2" d="M627.35,907.28c-.2,0-.56,1-1.25,3.32-1,3.34-1.42,5.27-1.9,7.06-.75,2.81-.85,2.38-2.22,6.78-.93,3-2.32,7.79-2.06,7.88a13.68,13.68,0,0,0,1.37-2.87c1.79-4.32,2-5.83,3.51-10.17,1.23-3.53,2.46-6.52,2.67-10.18C627.49,908.67,627.57,907.33,627.35,907.28Z" transform="translate(-572.59 -820.51)"/><path class="cls-2" d="M596.38,853.94c1.41.27,2.83.58,4.24.92a7.16,7.16,0,0,1-1.64-2.78,7,7,0,0,1-.2-3.28c-1.51,1.54-3,3.14-4.38,4.79l.34,0A2.15,2.15,0,0,1,596.38,853.94Z" transform="translate(-572.59 -820.51)"/><path class="cls-3" d="M690.19,829.25a86.17,86.17,0,0,0,7.66,6.28c.67.46,1.33.93,2,1.35s1.37.87,2.07,1.28l2.14,1.16c.35.21.73.37,1.09.54l1.11.52,1.1.52,1.14.45,2.28.9,2.34.76c.39.12.77.26,1.17.37l1.19.3a74.7,74.7,0,0,0,17.23,2.37c-12.75-12.69-29.55-21.51-50.67-24.26l.57.51C685.24,824.62,687.7,827,690.19,829.25Z" transform="translate(-572.59 -820.51)"/><path class="cls-2" d="M583.22,910.64a16.74,16.74,0,0,1-.57-3.48c0-1.37.14-2.06,0-2.1s-1.14,1.62-1.21,3.56c-.05,1.37.37,1.88,1,4,1,3.39.81,5.25,1.13,5.25s1-2.16.57-4.36C583.92,912.46,583.7,912.58,583.22,910.64Z" transform="translate(-572.59 -820.51)"/><path class="cls-4" d="M718.55,952.07c-4.75-5.36-7.89-8.9-12.76-8.9h0c-4.49,0-7.45,3.07-14,9.74-1.93,2-4.13,4.25-6.75,6.81a262.12,262.12,0,0,1-28.38,24.1c-.59,1.18-1.16,2.28-1.72,3.32a61.19,61.19,0,0,0,21.27-7.1,72.82,72.82,0,0,0,12-8.79c5-4.26,9.3-7.94,16.54-8.76,4.16-.48,7.23.22,18.27,4.15,5.81,2.06,11.67,4.25,17.53,6.56.44-.56.87-1.12,1.3-1.69A72.45,72.45,0,0,1,732,965.1,94.58,94.58,0,0,1,718.55,952.07Z" transform="translate(-572.59 -820.51)"/><path class="cls-5" d="M705.19,966c-6.15.7-9.89,3.89-14.62,7.93A76,76,0,0,1,678,983.16,66,66,0,0,1,652.77,991c-.63,1.09-1.25,2.12-1.84,3.1a83.61,83.61,0,0,0-5.87,11.12l0,.07a97.14,97.14,0,0,0,20.33,2.14c34.5,0,57.31-13.07,72.85-31.35q-8.21-3.2-16.35-6.1C710.93,966.12,708.48,965.67,705.19,966Z" transform="translate(-572.59 -820.51)"/><path class="cls-4" d="M734.18,962.27a71.26,71.26,0,0,0,9.83,6.32c2.14-3.05,4.12-6.21,6-9.44l-5.71-3.22a113.45,113.45,0,0,1-11.78,5C733,961.35,733.59,961.81,734.18,962.27Z" transform="translate(-572.59 -820.51)"/><path class="cls-2" d="M633.16,884.76a18.77,18.77,0,0,1-10-2.68,21.06,21.06,0,0,1,12.29-4,20.37,20.37,0,0,1,6.43,1.07c-1.83-1.8-3.74-3.54-5.72-5.19-.81-.68-1.65-1.35-2.49-2a9.32,9.32,0,0,1-5.15,4.23c-4.76,1.62-9.41-1.77-10.17-2.34a26.66,26.66,0,0,1,10.17-3.47c.84-.1,1.85-.21,2.75-.23q-3.12-2.28-6.42-4.3c-.86,1.2-3.95,2.89-7.17,3a10.74,10.74,0,0,1-6-1.79,17.91,17.91,0,0,1,8-2.68,25.19,25.19,0,0,1,2.56,0q-3.69-2.12-7.56-3.89a4.49,4.49,0,0,1-3,2c-2.52.42-4.43-1.78-4.58-2a10.66,10.66,0,0,1,2.68-.95,13.46,13.46,0,0,1,2.26-.26c-2.34-1-4.73-1.88-7.14-2.68a7.24,7.24,0,0,1-3.39,2.1,7.08,7.08,0,0,1-3.12.17,4.68,4.68,0,0,1,2.45-2.74,4.4,4.4,0,0,1,1.42-.37c-1.89-.56-3.79-1.07-5.72-1.52.09.65-1.21,2-2.74,2.34a3.78,3.78,0,0,1-1.68,0c-12.25,15.63-19.45,35.49-19.45,57.7v.51a99.77,99.77,0,0,0,2.39,22c5.5.93,11.06,1.71,16.61,2.33a42,42,0,0,1-2.88-7c-.51-1.64-2.3-5.1-5.89-12-2.65-5.11-3.41-6.19-3.88-8.8a17.36,17.36,0,0,1,.4-7.75c.62-2.13,1.18-4.06,2.83-4.85,1-.48,2.12-.36,2.58-1.21a2.39,2.39,0,0,0-.08-1.94,23.23,23.23,0,0,0-2.5-4.84c-2.17-3.91.13-10.67,2.83-14.21a19.35,19.35,0,0,1,1.21-2.1,9.37,9.37,0,0,1,4.6-3.07c.85-.25.69-.1,2.25-.43s2.4-.58,3.24-.7c1.4-.2,1.76.09,3.3.43.51.11,1.12.22,2.35.38,4,.53,7.25-.84,10.9.81.85.38,1.37,1,2.26,1.37,1.68.74,2.58,1.89,4.2,4,1.12,1.43,4.15,5.28,4,10.1-.11,2.69-1.19,4.87,0,7.43a5.25,5.25,0,0,0,1.05,1.53c1.43,1.38,2.77.83,4.36,1.7,2.57,1.4,3,5,3,5.24a8.82,8.82,0,0,1-1.21,4.77c-1.31,2.79.5-.29-3.64,11.22-3.33,9.28-3.12,7.41-4.28,11.31-1.07,3.61-3.16,6.9-4.11,10.54,7.55.19,15.13.1,22.66-.26-4.87-6.82-7.67-15.89-7.67-26.37v-.51c0-12.42,4.44-23.55,12.1-30.73-.57-.62-1.15-1.24-1.74-1.85A18.85,18.85,0,0,1,633.16,884.76Z" transform="translate(-572.59 -820.51)"/><path class="cls-2" d="M619.64,899.21c.33-.45,1.08-1.4.84-1.7s-1.51.19-2.42.93a5.58,5.58,0,0,0-1.61,2.34c-2.55,6.26-1.68,3.8-2.43,5.9-1.74,4.9-1.9,5.48-1.89,6.42,0,.67.09,1.56,0,3.27,0,1.27-.12,1.87,0,1.9s.94-2.29,1.69-4.57C616.53,905.64,617.86,901.61,619.64,899.21Z" transform="translate(-572.59 -820.51)"/><path class="cls-2" d="M619.43,925.05c1-2.67,1.27-3,2.06-5.25a14.09,14.09,0,0,0,1-5,11.46,11.46,0,0,0-.08-1.37,16.71,16.71,0,0,0,1.78-3.27,4.55,4.55,0,0,0,.44-2.54c0-.14-.17-1.08-.44-1.09s-.58,2.22-1.62,5.33c-.65,2-.81,1.75-1.65,4.07s-.72,2.61-1.66,5.7c-1,3.3-1.18,3.1-1.9,5.73a36.69,36.69,0,0,0-1.05,5.53c-.12,1.15-.38,3.46,0,3.55s.79-.93,1.05-1.81a7.73,7.73,0,0,0,.17-3.23C617.41,930.32,618.08,928.55,619.43,925.05Z" transform="translate(-572.59 -820.51)"/><path class="cls-2" d="M617,917.46c-.5-.29-1.56.34-2.14,1.17-.71,1-.21,1.66-.77,3.59-.42,1.5-1.07,2.33-.84,2.51s.75-.27,1.13-.65c.62-.64.61-1.15,1-2,.75-1.63,1.63-1.59,1.89-2.91C617.36,918.64,617.41,917.71,617,917.46Z" transform="translate(-572.59 -820.51)"/><path class="cls-2" d="M606.07,902.12a3,3,0,0,0-1,1.41,5.68,5.68,0,0,0-.24,2.1c0,1.2-.13,1.14-.24,2.74s-.06,2.67,0,4.73c0,4.48-.23,4.75,0,7.23.13,1.54.46,4,.72,3.95s.5-4.51.65-9.28c.22-7.15,0-8.49,1.13-10.62.45-.86,1.35-2.26.93-2.71S606.68,901.65,606.07,902.12Z" transform="translate(-572.59 -820.51)"/><path class="cls-2" d="M613.14,902.72c0-.46-.1-1.92-.65-2.06-.74-.18-2.07,2.05-2.75,4-.74,2.15,0,2.05-.72,6.34a10.47,10.47,0,0,0,0,3.75c.07.37.24,1.26.44,1.26s.18-2.06.69-4.36C611.12,907.44,613.31,906.24,613.14,902.72Z" transform="translate(-572.59 -820.51)"/><path class="cls-6" d="M706.28,881.12a81,81,0,0,1-20.93-2.1l-1.29-.3-.47-.13c6.83,3.81,11.8,10.07,15.77,17.69l31.07-18.19-3.47.71A126.5,126.5,0,0,1,706.28,881.12Z" transform="translate(-572.59 -820.51)"/><path class="cls-2" d="M672.81,874.54l-2.39-1.23c-.78-.43-1.54-.9-2.31-1.36s-1.52-.94-2.27-1.44a88,88,0,0,1-8.31-6.5c-2.63-2.27-5.14-4.58-7.68-6.75a72.7,72.7,0,0,0-7.82-6,44.28,44.28,0,0,0-4.15-2.41c-.7-.37-1.43-.69-2.15-1s-1.45-.62-2.2-.89-1.49-.51-2.24-.76-1.52-.45-2.29-.63-1.55-.34-2.33-.5-1.57-.25-2.35-.37a45.4,45.4,0,0,0-9.54-.23,53,53,0,0,0-9.47,1.61l-1.17.32-1.16.34c-.77.23-1.53.5-2.3.75l-.89.32c-.31.31-.62.61-.92.92a7.65,7.65,0,0,1,2.62,4.25,5.12,5.12,0,0,1,0,2.11q2.68.66,5.34,1.49a6.54,6.54,0,0,1-1.8-4.27,5.36,5.36,0,0,1,.45-2.07,8.16,8.16,0,0,1,2.79,4.42,6.42,6.42,0,0,1,.16,2.43c2.76.91,5.49,1.94,8.16,3.1a11.87,11.87,0,0,1-2.67-5.7,10.07,10.07,0,0,1,.22-4,15.68,15.68,0,0,1,4.8,6.7c.37,1,1.13,3.43.95,4.52,1.15.55,2.29,1.13,3.42,1.72s2.28,1.24,3.4,1.89a17.76,17.76,0,0,1-2.74-8.58,15.66,15.66,0,0,1,.9-5.92c1.31,1.15,5,4.7,5.36,10.06.13,2-.18,5.12-1.12,5.87,2.37,1.47,4.69,3,6.93,4.71a14.77,14.77,0,0,1-1.79-9,12.78,12.78,0,0,1,2.57-5.92,19.18,19.18,0,0,1,3.46,11.28c0,.39-.15,5-1.35,5.89,2.2,1.77,4.32,3.64,6.37,5.59a20.73,20.73,0,0,1,3.7-16.17,16.62,16.62,0,0,1,1.45,11.51c-.71,2.63-2.36,5.61-3.6,6.17l.52.53a30.7,30.7,0,0,1,19.5-6.73,38.57,38.57,0,0,1,7.41.68l-.29-.13A13.35,13.35,0,0,1,672.81,874.54Z" transform="translate(-572.59 -820.51)"/><path class="cls-6" d="M705.84,858.05l-1.29-.3c-.43-.11-.85-.25-1.28-.38l-2.55-.76c-.84-.29-1.67-.61-2.51-.92l-1.25-.47-1.23-.54-1.22-.54a13.35,13.35,0,0,1-1.21-.57l-2.39-1.23c-.78-.43-1.54-.91-2.31-1.36s-1.52-1-2.27-1.44A86.44,86.44,0,0,1,678,843c-2.62-2.27-5.14-4.57-7.68-6.75a73.91,73.91,0,0,0-7.82-6,43,43,0,0,0-4.15-2.41c-.7-.37-1.43-.7-2.15-1s-1.45-.62-2.2-.89-1.49-.52-2.24-.77-1.52-.45-2.29-.62-1.55-.34-2.33-.5-1.57-.25-2.35-.38l-.83-.09a95.67,95.67,0,0,0-10.5,3.12c1,.09,1.93.2,2.88.35s1.8.31,2.69.49,1.79.39,2.67.64,1.76.51,2.63.78,1.73.59,2.58,1,1.68.71,2.52,1.08,1.64.8,2.44,1.24a51.71,51.71,0,0,1,4.64,2.83,79.85,79.85,0,0,1,8.3,6.63c2.6,2.32,5.06,4.69,7.55,6.94A84.45,84.45,0,0,0,680,855c.67.47,1.33.94,2,1.35s1.36.88,2.07,1.28l2.14,1.17c.35.2.72.37,1.09.54l1.11.52,1.1.52,1.14.45c.76.3,1.51.61,2.28.89l2.33.76c.39.12.78.26,1.17.37l1.2.31a76.92,76.92,0,0,0,19.65,2.4,122.61,122.61,0,0,0,20-1.8l5-.91,3.2-.71c-.75-1.19-1.53-2.37-2.33-3.52a118.68,118.68,0,0,1-16.44,1.58A81.38,81.38,0,0,1,705.84,858.05Z" transform="translate(-572.59 -820.51)"/><path class="cls-2" d="M590.33,897.4c-1.2-.92-1.09-2.7-2.09-2.83a1.28,1.28,0,0,0-.83.26l.11.12A15.09,15.09,0,0,0,590.33,897.4Z" transform="translate(-572.59 -820.51)"/><path class="cls-3" d="M714.29,848.47l-1.3-.3c-.43-.11-.85-.25-1.27-.37l-2.56-.77c-.84-.29-1.67-.61-2.5-.92l-1.26-.47-1.22-.54-1.23-.54c-.4-.18-.82-.35-1.21-.57l-2.38-1.23c-.79-.43-1.54-.9-2.32-1.36s-1.52-.94-2.26-1.44a89.41,89.41,0,0,1-8.32-6.5c-2.62-2.27-5.13-4.58-7.67-6.75a74.69,74.69,0,0,0-7.51-5.77c-1.19,0-2.4-.06-3.62-.06-2.94,0-5.84.13-8.71.37.78.38,1.55.75,2.31,1.17a53.16,53.16,0,0,1,4.64,2.83,79.85,79.85,0,0,1,8.3,6.63c2.59,2.32,5.06,4.69,7.55,6.94a81.78,81.78,0,0,0,7.66,6.28c.67.47,1.33.94,2,1.36s1.37.87,2.08,1.27l2.14,1.17a11,11,0,0,0,1.09.54l1.1.52,1.11.52,1.14.45c.76.3,1.51.61,2.27.9l2.34.75,1.17.38,1.19.3a76.51,76.51,0,0,0,19.66,2.4,112.53,112.53,0,0,0,13.7-.89c-1.12-1.45-2.29-2.87-3.49-4.25l-1.72.05A80.91,80.91,0,0,1,714.29,848.47Z" transform="translate(-572.59 -820.51)"/><path class="cls-2" d="M604.91,897.36a6.72,6.72,0,0,1,1.19-3.93,3.93,3.93,0,0,1,1.6-1.09l.48-.18-.12-.5a6.48,6.48,0,0,0-.59-1.52,5.66,5.66,0,0,0,1.64,1.17,3.39,3.39,0,0,0,2.62.29,2.69,2.69,0,0,0,1.12-.83A5.77,5.77,0,0,1,610,890a4.47,4.47,0,0,1-.45-.28h.09a2.93,2.93,0,0,0,2.08-1.16,3.45,3.45,0,0,0,.63-3.27A2.34,2.34,0,0,0,609,883.7a4.68,4.68,0,0,0-1.36.8,4.9,4.9,0,0,1,1-1.39c1.3-1.24,2.25-1.31,2.82-1.15a2.09,2.09,0,0,1,1,.71.93.93,0,0,0,1.37,0,.88.88,0,0,0-.18-1,3.68,3.68,0,0,0-1.8-1.2c-.95-.27-2.47-.23-4.31,1.51a5.83,5.83,0,0,0-1.87,4.35,5.35,5.35,0,0,0,.66,2.39,5.75,5.75,0,0,0-1.36-1,4.18,4.18,0,0,0-3.46-.29,3.26,3.26,0,0,0-1,.61,6.34,6.34,0,0,0,.23-1.59,4.67,4.67,0,0,0-1.1-3.35,5,5,0,0,0-2.2-1.17,6.65,6.65,0,0,0-3.76-.54,5.16,5.16,0,0,0-2,.93,1,1,0,0,0-.63,1.29.94.94,0,0,0,1.18.27,3.88,3.88,0,0,1,1.78-1,5.3,5.3,0,0,1,2.93.49c1,.34,1.29.46,1.58.77a3.18,3.18,0,0,1,.67,2.27,4.64,4.64,0,0,1-.62,2.22,5,5,0,0,1-1.74,2.05,4.79,4.79,0,0,1-3,.68,4.33,4.33,0,0,0,3.15.57,3.83,3.83,0,0,0,2-1.24,6.13,6.13,0,0,0-.15,1.49l0,.45.43.1a3.52,3.52,0,0,1,1.88,1,17.94,17.94,0,0,1,1.82,4l0,0c.23.6.43,1.13,1,1.13h.07C604.82,898.83,604.86,898.18,604.91,897.36ZM608,885.7a.48.48,0,1,1-.48.48A.48.48,0,0,1,608,885.7Zm-4.14,10.62c-1.06-2.66-1.47-3.12-1.65-3.32a4.41,4.41,0,0,0-2-1.25,3.6,3.6,0,0,1,1.88-3.24,3,3,0,0,1,2.48.25,4.7,4.7,0,0,1,2.28,2.71,5,5,0,0,0-1.57,1.2A6.63,6.63,0,0,0,603.83,896.32Z" transform="translate(-572.59 -820.51)"/><path class="cls-6" d="M738.08,867.68A127.48,127.48,0,0,1,717.4,870a81.43,81.43,0,0,1-20.93-2.1l-1.29-.3c-.43-.11-.85-.25-1.28-.38l-2.55-.76-2.51-.92-1.25-.47-1.22-.54-1.23-.54c-.41-.19-.82-.36-1.21-.57l-2.38-1.23c-.79-.43-1.55-.91-2.32-1.36s-1.52-1-2.26-1.44a88.19,88.19,0,0,1-8.32-6.51c-2.62-2.27-5.13-4.58-7.67-6.75a75,75,0,0,0-7.82-6,44.43,44.43,0,0,0-4.16-2.41c-.7-.37-1.42-.7-2.14-1s-1.46-.62-2.21-.89-1.49-.52-2.24-.77-1.52-.45-2.29-.62-1.55-.35-2.33-.5-1.57-.25-2.35-.38a46.69,46.69,0,0,0-9.53-.23,53.59,53.59,0,0,0-9.47,1.62l-.28.07c-1.51.93-3,1.89-4.43,2.89.87-.08,1.74-.15,2.62-.2a52.3,52.3,0,0,1,10.89.51c.9.16,1.8.3,2.69.49s1.78.38,2.66.63,1.76.51,2.64.78,1.73.6,2.57,1,1.69.71,2.53,1.08,1.64.8,2.44,1.24a53.16,53.16,0,0,1,4.64,2.83,82.58,82.58,0,0,1,8.3,6.63c2.59,2.32,5.06,4.69,7.55,6.95a83.39,83.39,0,0,0,7.66,6.28c.67.46,1.33.93,2,1.35s1.37.87,2.08,1.28l2.14,1.16a11,11,0,0,0,1.09.54l1.1.52,1.11.52,1.13.45,2.28.9,2.34.76c.39.12.78.26,1.17.37l1.19.3a76.07,76.07,0,0,0,19.66,2.4,121.61,121.61,0,0,0,20-1.8l5-.91c1.65-.34,3.3-.74,4.94-1.1l2.47-.57,2.45-.66.83-.22,6.78-4c-.34-.63-.7-1.25-1-1.87-1.49.37-3,.75-4.47,1.1Z" transform="translate(-572.59 -820.51)"/><path class="cls-2" d="M612.37,897.67c-.18,0-.25.38-.72.72a5.07,5.07,0,0,1-2.34.86,2.31,2.31,0,0,0-1.57.66.8.8,0,0,0-.2.33s0,.11-.08.17c1.54-.35,3.31-.81,5.25-1.33C612.49,898.48,612.64,897.73,612.37,897.67Z" transform="translate(-572.59 -820.51)"/><path class="cls-2" d="M586.39,887.62a2.47,2.47,0,0,0-.77-3.15,1.44,1.44,0,0,0-.88-.11c0,.31,0,.58,0,.8a18.09,18.09,0,0,0,.09,3.23A2.51,2.51,0,0,0,586.39,887.62Z" transform="translate(-572.59 -820.51)"/><path class="cls-2" d="M596.22,909c0-2.08.46-3.22-.32-4a5.29,5.29,0,0,0-2.51-.88s.29,3.33.41,4.44c.46,4.48,1.52,5.18,2.26,9.61s.32,7.41.56,7.42.61-3,.73-5.49a31.06,31.06,0,0,0-.08-5.41C596.88,911.41,596.22,911.48,596.22,909Z" transform="translate(-572.59 -820.51)"/><path class="cls-2" d="M592.75,927.27c-1.29-1.65-2.1-1.17-3.39-2.5-2.31-2.37-1.08-5.23-2-11.63-.66-4.49-2-8-2.18-8s.56,2.67,1.05,7.42c.32,3.16.88,6.29,1.21,9.45a7.3,7.3,0,0,0,.71,2.53,6.17,6.17,0,0,0,1.55,2,10.21,10.21,0,0,0,1.45.89c1.24.83,1.28,2.18,1.94,4.12.94,2.75,2.52,4.86,2.75,4.76.08,0,0-.39-.81-3.07C593.57,928.55,593.25,927.91,592.75,927.27Z" transform="translate(-572.59 -820.51)"/><path class="cls-2" d="M585.91,883.07a1.72,1.72,0,0,0,1-2.15,1.43,1.43,0,0,0-.82-.79,1,1,0,0,0-.42,0,12.91,12.91,0,0,0-.7,2.57C585.25,882.86,585.52,883.14,585.91,883.07Z" transform="translate(-572.59 -820.51)"/><path class="cls-2" d="M588,879.35a4.45,4.45,0,0,1,.63-.45,3.59,3.59,0,0,1,.54-.23,1.34,1.34,0,0,0,.32-.13.42.42,0,0,0,.16-.12c.14-.22-1.23-1-1.76-2a11.44,11.44,0,0,0-1.59,2.3C586.89,879.11,587.54,879.62,588,879.35Z" transform="translate(-572.59 -820.51)"/><path class="cls-2" d="M588.25,892.75a1.92,1.92,0,0,0,.09-.69,2.35,2.35,0,0,0-.08-.53,1.67,1.67,0,0,0-.23-.47l-.18-.31a7,7,0,0,0-.51-1c-.39-.34-1.43.28-2.19.59a11.82,11.82,0,0,0,1.3,3.14C587,893.16,588,893.33,588.25,892.75Z" transform="translate(-572.59 -820.51)"/><path class="cls-2" d="M602.48,902.48a1.11,1.11,0,0,0-.77.44,3.53,3.53,0,0,0-.69,2.31c0,2.25-.56,1.58-.72,6a23.93,23.93,0,0,0,.4,6.7c.07.29.62,2.79,1,2.75s-.16-3.36.48-8.52c.42-3.39.63-5.08.77-5.53.37-1.22,1.05-3,.36-3.72A1.13,1.13,0,0,0,602.48,902.48Z" transform="translate(-572.59 -820.51)"/><path class="cls-2" d="M600.8,901.27l.1-.06c-.4-.15-.71-.31-1-.44a2.36,2.36,0,0,0-1.44-.39c-.39,0-.58.07-.78.08-.87.08-1.24-.72-1.71-.54a1,1,0,0,0-.45.62,21.72,21.72,0,0,1,1.24,3.15c.91,2.7,1.1,3.85,1.44,3.84.51,0,1.27-2.79,2-5.25A1.72,1.72,0,0,1,600.8,901.27Z" transform="translate(-572.59 -820.51)"/><path class="cls-2" d="M599.91,924.6c-.32,0-.56.52-.65.7-.36.77-.27,1.52.11,3.26s.56,2.56.78,2.56.53-1.12.67-1.8a6.52,6.52,0,0,0,.06-3.13C600.83,926,600.44,924.6,599.91,924.6Z" transform="translate(-572.59 -820.51)"/><path class="cls-2" d="M598.81,848.67l0,.13.09-.08Z" transform="translate(-572.59 -820.51)"/><path class="cls-7" d="M627.05,944.65h6.19c.8,0,.84,0,.87.79.06,1.61.08,3.21.11,4.82q.09,6.21.19,12.43c0,2.94.1,5.88.16,8.82s.1,5.94.16,8.91.1,5.88.16,8.82c.08,4,.18,8,.27,12v.16c0,.83,0,.79-.75.54-1.55-.5-3.12-.93-4.67-1.43a11.13,11.13,0,0,1-1.19-.61q-4.26-2-8.54-4.06a1,1,0,0,1-.69-1.16q.3-7.36.55-14.74c.1-2.73.17-5.45.26-8.18.19-5.31.39-10.63.57-15.94.12-3.4.22-6.79.33-10.18,0-.89,0-.88.88-.87h5.14Z" transform="translate(-572.59 -820.51)"/><path class="cls-7" d="M668.37,969.35c-2.89-.05-5.79-.09-8.68-.12l-17.75-.18v0c-1.4,0-2.79,0-4.18,0-.46,0-.61.13-.58.58.09,1.87.16,3.74.23,5.61l.48,15.06q.2,6.25.37,12.51c0,.37.09.58.5.67a15.51,15.51,0,0,1,1.85.53c.49.17.66,0,.87-.46.68-1.43,1.35-2.88,2-4.3a.73.73,0,0,0,.22-.18l.16-.21a13.55,13.55,0,0,1,1.22-1.95.41.41,0,0,1,.12-.11l.12-.2h0a2.64,2.64,0,0,1,.23-.35.7.7,0,0,1,.21-.21h0a15.94,15.94,0,0,1,1.42-2.05l.2-.27c.19-.3.39-.58.6-.87a2.43,2.43,0,0,1,.14-.2h0a1.7,1.7,0,0,0,.1-.14l.12-.09a2.43,2.43,0,0,1,.14-.2h0l.1-.14,0,0c.23-.29.45-.59.69-.87l0,0,.12-.16a.64.64,0,0,1,.06-.18,16,16,0,0,1,1.41-1.84l.39-.44v0c1.34-2.08,2.45-4.3,4-6.28a37.69,37.69,0,0,1,5.31-5.48l1.36-1.2.31-.37a11.24,11.24,0,0,1,.82-.87l5.4-4.44a2.62,2.62,0,0,0,.3-.35A2.81,2.81,0,0,0,668.37,969.35Z" transform="translate(-572.59 -820.51)"/><path class="cls-8" d="M668.25,966.87l-11.57-.18-8.44-.16-8.75-.17c-.64,0-1.29-.07-1.93-.06-.42,0-.55-.12-.55-.55,0-1.63,0-3.26-.08-4.89,0-.86,0-1.71-.08-2.57,0-.5.11-.68.66-.71,5.19-.25,10.37-.54,15.56-.82q5.73-.3,11.46-.64l15.63-.87,3.77-.2a4.87,4.87,0,0,1,.54,0,3,3,0,0,1-.36.49c-1.36,1.33-2.7,2.67-4.1,4-2.53,2.34-5.1,4.65-7.64,7a1.51,1.51,0,0,1-1.15.42c-1,0-2,0-3,0Z" transform="translate(-572.59 -820.51)"/><path class="cls-9" d="M641,943.44c.88.13,1.65.21,2.42.35a2.37,2.37,0,0,1,1,.36c.89.65,1.92,1.15,2.75,1.84a29.38,29.38,0,0,0,10.52,5.49c2.07.62,4.19,1.08,6.29,1.61l.34.1a1.6,1.6,0,0,1-.37.12l-4.81.27-13.07.73-8.73.48c-.4,0-.5-.11-.51-.49q-.07-4.81-.18-9.62c0-.46.1-.7.58-.76C638.48,943.78,639.78,943.6,641,943.44Z" transform="translate(-572.59 -820.51)"/><path class="cls-10" d="M578.62,941.12l5.82.82c.9.12,1.8.27,2.71.36.55.05.47.23.22.57-1,1.3-2,2.61-2.94,3.91l-3.9,5.2a3.59,3.59,0,0,1-.38.4,3.88,3.88,0,0,1-.22-.46c-.94-2.72-1.86-5.45-2.81-8.16a1.14,1.14,0,0,1,.26-1.36c.33-.31.58-.71.89-1A1.32,1.32,0,0,1,578.62,941.12Z" transform="translate(-572.59 -820.51)"/><path class="cls-11" d="M677.45,952.63l-1.12-.09,1.06-.31a31.59,31.59,0,0,0,13.05-7.43c.76-.72.76-.71,1.55-.06.38.3.73.63,1.12.91s.37.43,0,.74c-.86.84-1.7,1.71-2.54,2.57s-1.74,1.74-2.58,2.64a1.33,1.33,0,0,1-1,.47l-7.38.39-2.24.13Z" transform="translate(-572.59 -820.51)"/><path class="cls-7" d="M617.52,944.61c-3.4-.14-6.8-.28-10.19-.45-.5,0-.63.09-.68.57-.23,2.37-.49,4.74-.74,7.1q-.43,4.2-.88,8.38c-.29,2.84-.59,5.69-.89,8.53s-.6,5.64-.89,8.46c-.24,2.26-.46,4.52-.73,6.78a1.26,1.26,0,0,0,.07.6.91.91,0,0,0,.29.52.66.66,0,0,0,.2.28,6.81,6.81,0,0,0,1.1.77,5.91,5.91,0,0,0,.61.41,10.7,10.7,0,0,0,1.29,1l0,0a22.08,22.08,0,0,0,5,3.67h0a7,7,0,0,0,1,.66c.62.32,1.15.78,1.76,1.12s1.53.76,2.29,1.14c.35.17.33-.06.34-.28,0-.51.07-1,.08-1.52q.25-7,.49-14c.1-3,.22-5.93.32-8.9l.48-13.86.33-9.54h0v-.72C618.27,944.62,618.27,944.64,617.52,944.61Z" transform="translate(-572.59 -820.51)"/><path class="cls-7" d="M603.57,944l-11.94-1.12a.9.9,0,0,0-.94.42c-1.59,2.15-3.21,4.29-4.81,6.42-1.3,1.73-2.61,3.45-3.89,5.19a1,1,0,0,0-.22.77,25.5,25.5,0,0,0,1.37,3.28c1.12,2.06,2.33,4.07,3.51,6.1a5.76,5.76,0,0,0,.52.7c.09-.25.16-.51.27-.75a3,3,0,0,1,5.65,1.37,2.94,2.94,0,0,1-2.52,2.76c-.57.09-.56.08-.23.55l3.17,4.5c.28.4.53.83.84,1.19.91,1.07,1.85,2.12,2.78,3.17s1.63,1.88,2.45,2.81a2,2,0,0,0,.31.24,1.65,1.65,0,0,0,.16-.42q.35-3.14.67-6.27l.87-8.13q.45-4.26.92-8.53.38-3.37.74-6.75l.72-6.76C604,944,604,944,603.57,944ZM590.23,956.2a2.86,2.86,0,0,1-1.33,2.38,3,3,0,0,1-1.65.48,2.91,2.91,0,0,1-.89-.14,2.87,2.87,0,0,1-1.6-1.26,4.23,4.23,0,0,1-.22-.42c0-.09-.07-.19-.09-.28v0a3.24,3.24,0,0,1-.12-.89,2.92,2.92,0,0,1,.9-2,2.95,2.95,0,0,1,3.25-.59,3,3,0,0,1,1.7,2.1,3.74,3.74,0,0,1,.06.68Zm6.63-12.11a2.95,2.95,0,0,1,0,5.89,2.95,2.95,0,1,1,0-5.89Zm.22,17.56a3,3,0,0,1-2.91-2.95,3,3,0,0,1,5.9,0A3,3,0,0,1,597.08,961.65Z" transform="translate(-572.59 -820.51)"/><path class="cls-12" d="M833.14,925.64A55.53,55.53,0,0,1,821,929.19a79.25,79.25,0,0,1-15.41,1.53q-18.18,0-29.14-10.22t-11-28.85q0-18.3,11.74-28.63t30-10.33a73.75,73.75,0,0,1,25.3,4.06V878a59.61,59.61,0,0,0-10-2.93,57,57,0,0,0-12.36-1.47q-19.1,0-19.09,18.41,0,17.73,18.75,17.72a67,67,0,0,0,23.26-4.51Z" transform="translate(-572.59 -820.51)"/><path class="cls-12" d="M876.72,930.72q-17.73,0-28.69-10.79t-10.95-28.17q0-17.5,11.46-28.29t29.76-10.78q17.72,0,28.73,10.45t11,27.27q0,18.51-11.57,29.41T876.72,930.72Zm1.12-21q6.9,0,10.84-4.51t4-13.44q0-9-3.84-13.61a13,13,0,0,0-10.5-4.57q-7.23,0-11.41,4.63t-4.18,13.55q0,8.81,4.07,13.38T877.84,909.71Z" transform="translate(-572.59 -820.51)"/><path class="cls-12" d="M993.6,929.25H972.26L947.53,895v34.21H923V854.16H944.7l24.4,34.33V854.16h24.5Z" transform="translate(-572.59 -820.51)"/><path class="cls-12" d="M1065.81,925.64a55.36,55.36,0,0,1-12.14,3.55,79.17,79.17,0,0,1-15.41,1.53q-18.18,0-29.13-10.22t-11-28.85q0-18.3,11.75-28.63t30-10.33a73.71,73.71,0,0,1,25.3,4.06V878a59.61,59.61,0,0,0-10-2.93,57,57,0,0,0-12.36-1.47q-19.08,0-19.08,18.41,0,17.73,18.74,17.72a67,67,0,0,0,23.26-4.51Z" transform="translate(-572.59 -820.51)"/><path class="cls-12" d="M1110,930.72q-17.73,0-28.68-10.79t-10.95-28.17q0-17.5,11.46-28.29t29.75-10.78q17.73,0,28.74,10.45t11,27.27q0,18.51-11.57,29.41T1110,930.72Zm-6-83.11-9.6-8.92q4.29-1.7,11-7a69.14,69.14,0,0,0,11.29-11.18l13.1,10.5a47.93,47.93,0,0,1-12.53,10.61Q1109.45,846.38,1104,847.61Zm7.11,62.1q6.88,0,10.84-4.51t4-13.44q0-9-3.84-13.61a13,13,0,0,0-10.5-4.57q-7.23,0-11.4,4.63T1096,891.76q0,8.81,4.06,13.38T1111.15,909.71Z" transform="translate(-572.59 -820.51)"/><path class="cls-12" d="M1226.5,929.25h-21.34L1180.43,895v34.21h-24.51V854.16h21.69L1202,888.49V854.16h24.5Z" transform="translate(-572.59 -820.51)"/><path class="cls-5" d="M813,963.26a32.54,32.54,0,0,1,3.91-3.33,9,9,0,0,1,3.08-1.51,4.09,4.09,0,0,1,2.62.21,8.18,8.18,0,0,1,2.52,1.91l1.07-1.66a1.11,1.11,0,0,1,1.19-.35,4.12,4.12,0,0,1,1.58.64,3.58,3.58,0,0,1,1.14,1.19.94.94,0,0,1,0,1.18,17.8,17.8,0,0,0-1.29,2.08c-.63,1.1-1.28,2.36-2,3.77s-1.33,2.81-1.9,4.2a17.25,17.25,0,0,0-1.08,3.37,1,1,0,0,0-.07.36v.43a23.74,23.74,0,0,0,2.8-1.79q1.57-1.15,3.09-2.34c1-.79,2-1.54,2.83-2.26l2-1.65a5.06,5.06,0,0,1,1-.61c.29-.12.58-.22.86-.32l.94-.32a5.9,5.9,0,0,0,1.14-.61c.29-.19.49-.25.61-.18s.06.27-.18.61q-2.79,3.72-5.95,7.25c-.58.62-1.22,1.33-1.94,2.15a19.51,19.51,0,0,1-2.33,2.22,10.26,10.26,0,0,1-2.62,1.55,4.2,4.2,0,0,1-2.8.1c-1.72-.43-2.85-1.07-3.37-1.93a3.93,3.93,0,0,1-.36-3.09q-1.44,2.09-2.87,3.8a11.06,11.06,0,0,1-2.8,2.52q-4.89,2.94-7.32-2.09a6.47,6.47,0,0,1-.58-2.62,10.28,10.28,0,0,1,.61-3.62,20.31,20.31,0,0,1,2.19-4.34A27.56,27.56,0,0,1,813,963.26ZM814,975a81.45,81.45,0,0,0,5.35-6.39c1.7-2.24,3.31-4.52,4.84-6.81a3.72,3.72,0,0,0-2.29.61,20.67,20.67,0,0,0-2.7,1.79c-.88.7-1.69,1.38-2.44,2a19.23,19.23,0,0,0-1.47,1.43c-.57.67-1.23,1.52-2,2.55s-1.44,2.09-2.08,3.19a22.14,22.14,0,0,0-1.54,3.09,3.06,3.06,0,0,0-.29,2.15c.29.43.75.33,1.4-.32S812.54,976.61,814,975Z" transform="translate(-572.59 -820.51)"/><path class="cls-5" d="M833.9,980.57a15.25,15.25,0,0,1,.32-1.7c.18-.71.42-1.52.74-2.42s.7-1.84,1.13-2.83.9-2,1.42-3a22.14,22.14,0,0,0-2.48.9,19,19,0,0,0-3,1.61c-.43.25-.7.31-.81.16s0-.42.35-.81c.78-.81,1.59-1.69,2.45-2.64s1.75-1.84,2.67-2.7,1.84-1.64,2.74-2.35a17.31,17.31,0,0,1,2.57-1.71.91.91,0,0,1,.87.07,2.46,2.46,0,0,1,.84.74,3.18,3.18,0,0,1,.52,1.06,1.17,1.17,0,0,1-.1,1,37.19,37.19,0,0,0-3.35,5.6,32,32,0,0,0-2.32,6.37,51.17,51.17,0,0,0,6.31-5.34,48.22,48.22,0,0,0,4.7-5.35,5.5,5.5,0,0,1-.61-2.09,9.09,9.09,0,0,1,.07-2.16,6.12,6.12,0,0,1,.57-1.86,4.06,4.06,0,0,1,.94-1.29,1,1,0,0,1,1-.13,3.8,3.8,0,0,1,1.22.65,4.58,4.58,0,0,1,1,1.06,2.53,2.53,0,0,1,.48,1.12,7.21,7.21,0,0,1-.09,2.26,14.41,14.41,0,0,1-.68,2.31,8.66,8.66,0,0,0,1.74.29c.73.07,1.51.11,2.35.13s1.69,0,2.57,0,1.71-.07,2.48-.16c.47-.08.73-.06.77.07s-.19.3-.7.51a21.43,21.43,0,0,0-2.13.93c-.51.28-1.07.57-1.67.87a8.72,8.72,0,0,1-2.93.68,7.3,7.3,0,0,1-3.7-.68,26.74,26.74,0,0,1-2.71,3.87,44.61,44.61,0,0,1-3.47,3.7,42.15,42.15,0,0,1-3.93,3.28,41,41,0,0,1-4.12,2.67,1.92,1.92,0,0,1-1.35.16,3.32,3.32,0,0,1-1.32-.61,3.87,3.87,0,0,1-1-1.06A2.13,2.13,0,0,1,833.9,980.57Z" transform="translate(-572.59 -820.51)"/><path class="cls-5" d="M861.46,965.32a30.24,30.24,0,0,1,3.51-3,8,8,0,0,1,2.76-1.35,3.68,3.68,0,0,1,2.35.19,7.43,7.43,0,0,1,2.26,1.71l1-1.48a1,1,0,0,1,1.06-.32,3.56,3.56,0,0,1,1.42.58,3.24,3.24,0,0,1,1,1.06.84.84,0,0,1,0,1.06,15.61,15.61,0,0,0-1.16,1.87c-.56,1-1.15,2.11-1.77,3.38s-1.19,2.52-1.71,3.76a15.26,15.26,0,0,0-1,3,.63.63,0,0,0-.07.32v.39a21.18,21.18,0,0,0,2.51-1.61c1-.69,1.87-1.39,2.77-2.09l2.55-2c.79-.65,1.4-1.14,1.83-1.48a4.27,4.27,0,0,1,.9-.55c.26-.11.52-.2.77-.29l.84-.29a4.78,4.78,0,0,0,1-.55c.26-.17.44-.22.55-.16s0,.25-.16.55q-2.52,3.35-5.35,6.5c-.51.56-1.09,1.2-1.73,1.93a17.22,17.22,0,0,1-2.1,2,9,9,0,0,1-2.35,1.38,3.67,3.67,0,0,1-2.51.1,4.74,4.74,0,0,1-3-1.74,3.5,3.5,0,0,1-.32-2.77q-1.29,1.88-2.58,3.42a9.86,9.86,0,0,1-2.51,2.25q-4.38,2.64-6.57-1.87a5.81,5.81,0,0,1-.51-2.35,9.2,9.2,0,0,1,.54-3.25,18,18,0,0,1,2-3.89A24.42,24.42,0,0,1,861.46,965.32Zm.9,10.55a72.62,72.62,0,0,0,4.79-5.73q2.29-3,4.35-6.11a3.34,3.34,0,0,0-2.06.55,16.86,16.86,0,0,0-2.41,1.61q-1.2.93-2.19,1.83a13.74,13.74,0,0,0-1.32,1.29q-.78.9-1.77,2.28c-.67.93-1.29,1.88-1.87,2.87a20.32,20.32,0,0,0-1.38,2.77,2.75,2.75,0,0,0-.26,1.93c.26.38.67.29,1.25-.29S861,977.29,862.36,975.87Z" transform="translate(-572.59 -820.51)"/><path class="cls-5" d="M884,972.75c.56-1.22,1.07-2.48,1.54-3.76-.85.55-1.84,1.14-3,1.77s-2.12,1.14-3,1.57-1.15.37-1.13.07a1.54,1.54,0,0,1,.42-.9c.77-.82,1.61-1.76,2.51-2.84s1.78-2.15,2.64-3.25,1.64-2.14,2.35-3.15a25.73,25.73,0,0,0,1.64-2.61.79.79,0,0,1,.9-.35,3.4,3.4,0,0,1,1.29.48,4.29,4.29,0,0,1,1.09.93,1.35,1.35,0,0,1,.39,1l-1.42,5.8c.52-.56,1.12-1.2,1.81-1.9a27.34,27.34,0,0,1,2.09-2c.71-.6,1.38-1.13,2-1.61a5.76,5.76,0,0,1,1.61-.9,2.41,2.41,0,0,1,1.19.07,6.78,6.78,0,0,1,1.57.58,5,5,0,0,1,1.32.9,1.16,1.16,0,0,1,.49,1c-.09.6-.25,1.47-.49,2.61s-.44,2.26-.61,3.38a19.72,19.72,0,0,0-.25,2.93q0,1.26.51,1.32a3.24,3.24,0,0,0,1.8-.58,21.31,21.31,0,0,0,2.22-1.51q1.13-.87,2.1-1.68a8.65,8.65,0,0,1,1.48-1.06,6.94,6.94,0,0,1,1.64-.58,6.28,6.28,0,0,0,2-.9,1.12,1.12,0,0,1,.61-.16c.15,0,.12.2-.09.55l-2.32,3.15c-.86,1.16-1.74,2.25-2.64,3.28a21.08,21.08,0,0,1-2.64,2.58,3.87,3.87,0,0,1-2.32,1,3.56,3.56,0,0,1-1.32-.48,11.76,11.76,0,0,1-1.45-1,12.45,12.45,0,0,1-1.28-1.22,5.42,5.42,0,0,1-.84-1.16,9.22,9.22,0,0,1-.8-3.58,35.88,35.88,0,0,1,0-4.15c-1,.86-2.12,1.84-3.25,2.93s-2.26,2.21-3.35,3.35-2.13,2.24-3.09,3.31-1.79,2-2.48,2.84l-1,1.09a1.2,1.2,0,0,1-1.12.26,3.72,3.72,0,0,1-1.42-.58,3.48,3.48,0,0,1-1-1,.78.78,0,0,1,0-1l1.16-1.48A20.5,20.5,0,0,0,884,972.75Z" transform="translate(-572.59 -820.51)"/><path class="cls-5" d="M909.87,970.79a4.13,4.13,0,0,0-1.06.16,15,15,0,0,0-1.84.68l-.38.12a.58.58,0,0,1-.33,0c-.08,0-.1-.09-.06-.2a2.1,2.1,0,0,1,.45-.54c.86-.78,1.77-1.58,2.74-2.42s1.94-1.62,2.93-2.35a31.41,31.41,0,0,1,2.86-1.9,11,11,0,0,1,2.54-1.12,3.22,3.22,0,0,1,1.84.16,5.72,5.72,0,0,1,1.83,1.06,8.19,8.19,0,0,1,1.42,1.54,2.84,2.84,0,0,1,.58,1.61,9.15,9.15,0,0,1-1.45,3.67,22.37,22.37,0,0,1-3.64,4.64c.17.17.35.35.52.55a3.84,3.84,0,0,1,.45.61,3.72,3.72,0,0,1,.19.45c0,.13.09.28.13.45,2-1.67,3.95-3.38,5.92-5.12s3.72-3.31,5.22-4.73c.39-.34.62-.47.71-.39s0,.35-.2.77a7.91,7.91,0,0,0-.67,1.74c-.11.48-.23.93-.36,1.36a6.85,6.85,0,0,1-1.7,2.47q-1.51,1.65-3.54,3.58c-1.36,1.28-2.76,2.58-4.22,3.89S918,984,917,985c-.3.43-.59.83-.87,1.19s-.52.72-.74,1.07a33.52,33.52,0,0,1-3.83,4.89,10.77,10.77,0,0,1-3.64,2.57,2.26,2.26,0,0,1-1.16.13,4.15,4.15,0,0,1-1.44-.38,2.57,2.57,0,0,1-1.07-.94,1.83,1.83,0,0,1-.06-1.57,8.8,8.8,0,0,1,2.8-3.71c1.35-1.09,2.93-2.33,4.73-3.7l2.51-2.06c.3-.51.59-1.05.87-1.61a19.75,19.75,0,0,0,.81-1.87c-.05,0-.05-.1,0-.32a3.11,3.11,0,0,1,.19-.64,16.86,16.86,0,0,1-3,2,12.23,12.23,0,0,1-3,1.13,1.77,1.77,0,0,1-.9-.16,6.19,6.19,0,0,1-1.09-.55,2.21,2.21,0,0,1-.78-.77.86.86,0,0,1,0-.9,7.21,7.21,0,0,1,2.19-2.13,11,11,0,0,1,3.16-1.41,33.87,33.87,0,0,0,3.8-3.77,29.37,29.37,0,0,0,2.76-3.77,4,4,0,0,1,.26-.51,1.54,1.54,0,0,0,.2-.45,10.27,10.27,0,0,0-2.81.74,22.63,22.63,0,0,0-4.34,2.41,9.17,9.17,0,0,1-.93.55A5.28,5.28,0,0,1,909.87,970.79Z" transform="translate(-572.59 -820.51)"/><path class="cls-5" d="M932.92,965.32a30.24,30.24,0,0,1,3.51-3,8,8,0,0,1,2.76-1.35,3.68,3.68,0,0,1,2.35.19,7.32,7.32,0,0,1,2.26,1.71l1-1.48a1,1,0,0,1,1.07-.32,3.58,3.58,0,0,1,1.41.58,3.15,3.15,0,0,1,1,1.06.84.84,0,0,1,0,1.06,15.61,15.61,0,0,0-1.16,1.87c-.56,1-1.15,2.11-1.77,3.38s-1.19,2.52-1.71,3.76a15.26,15.26,0,0,0-1,3,.76.76,0,0,0-.07.32v.39a22,22,0,0,0,2.52-1.61c.94-.69,1.86-1.39,2.76-2.09s1.75-1.39,2.55-2,1.4-1.14,1.83-1.48a4.53,4.53,0,0,1,.9-.55c.26-.11.52-.2.78-.29l.83-.29a4.78,4.78,0,0,0,1-.55c.26-.17.44-.22.55-.16s0,.25-.16.55q-2.52,3.35-5.35,6.5c-.51.56-1.09,1.2-1.73,1.93a16.52,16.52,0,0,1-2.1,2,9,9,0,0,1-2.35,1.38,3.67,3.67,0,0,1-2.51.1,4.74,4.74,0,0,1-3-1.74,3.54,3.54,0,0,1-.32-2.77q-1.29,1.88-2.58,3.42a9.7,9.7,0,0,1-2.51,2.25q-4.38,2.64-6.57-1.87a5.81,5.81,0,0,1-.51-2.35,9,9,0,0,1,.55-3.25,17.51,17.51,0,0,1,2-3.89A24.42,24.42,0,0,1,932.92,965.32Zm.9,10.55q2.5-2.7,4.8-5.73T943,964a3.36,3.36,0,0,0-2.06.55,16.86,16.86,0,0,0-2.41,1.61q-1.2.93-2.19,1.83a13.74,13.74,0,0,0-1.32,1.29q-.78.9-1.77,2.28c-.67.93-1.29,1.88-1.87,2.87a20.32,20.32,0,0,0-1.38,2.77,2.75,2.75,0,0,0-.26,1.93c.26.38.67.29,1.25-.29S932.49,977.29,933.82,975.87Z" transform="translate(-572.59 -820.51)"/><path class="cls-5" d="M950.43,980.19c.13-1.07.28-2.05.45-2.93a23.07,23.07,0,0,1,.61-2.48,21.64,21.64,0,0,1,.84-2.25c.32-.73.67-1.46,1.06-2.19.17-.3.21-.49.13-.55s-.23,0-.42,0-.42.21-.68.36-.51.29-.77.42-.34,0-.38-.1,0-.29.19-.42c.38-.39.93-1,1.64-1.8l2.19-2.51c.75-.86,1.43-1.66,2-2.39s1-1.2,1.22-1.41a1.13,1.13,0,0,1,1-.16,4.08,4.08,0,0,1,1.35.42,3,3,0,0,1,1,.8.69.69,0,0,1,.06.93c-1.24,1.72-2.47,3.43-3.67,5.12a38.08,38.08,0,0,0-3.22,5.51c.9-1.08,1.75-2,2.55-2.87s1.58-1.62,2.38-2.35,1.59-1.42,2.38-2.09,1.64-1.36,2.54-2.09a1.46,1.46,0,0,1,.87-.2,3.67,3.67,0,0,1,1.19.2,2.69,2.69,0,0,1,1,.58,1.08,1.08,0,0,1,.36,1,15.1,15.1,0,0,1-.68,1.93q-.61,1.55-1.32,3c.73-.82,1.5-1.67,2.32-2.57s1.62-1.76,2.41-2.58,1.56-1.55,2.29-2.19a14.53,14.53,0,0,1,1.93-1.48,1.41,1.41,0,0,1,.87,0,4.89,4.89,0,0,1,1.09.42,2.81,2.81,0,0,1,.9.71,1,1,0,0,1,.29.87,21.48,21.48,0,0,1-.74,2.31c-.32.86-.67,1.76-1.06,2.71s-.77,1.89-1.16,2.83-.73,1.81-1,2.61a15.41,15.41,0,0,0-.64,2.06,1.78,1.78,0,0,0,0,1.19c1-.52,2.14-1.16,3.35-1.93s2.39-1.62,3.57-2.55,2.34-1.85,3.48-2.8,2.15-1.84,3-2.7c.22-.22.36-.31.42-.29s.08.12,0,.29a2.5,2.5,0,0,1-.22.58,4.08,4.08,0,0,1-.36.58l-.83,1q-.25.32-.39.51a.92.92,0,0,0-.16.39,4.1,4.1,0,0,0,0,.58,10,10,0,0,1-1.35,2,32.32,32.32,0,0,1-2.58,2.86,34.42,34.42,0,0,1-3.09,2.74,9.88,9.88,0,0,1-2.77,1.64,2,2,0,0,1-1.09-.06,9.83,9.83,0,0,1-1.61-.58,9.48,9.48,0,0,1-1.51-.87,2.31,2.31,0,0,1-.87-1,5.42,5.42,0,0,1-.26-2.13,11.11,11.11,0,0,1,.39-2.41,23.56,23.56,0,0,1,.74-2.29,8.46,8.46,0,0,1,.8-1.67,5.18,5.18,0,0,0-1.67,1.35c-.73.78-1.52,1.66-2.35,2.64s-1.67,2-2.48,3-1.53,1.87-2.13,2.51a.57.57,0,0,1-.77.16,2.61,2.61,0,0,1-.84-.71,4,4,0,0,1-.61-1.09,1.87,1.87,0,0,1-.09-1.13c.12-.56.25-1.06.38-1.51l.39-1.32q.2-.65.42-1.29c.15-.43.31-.92.48-1.48a10.84,10.84,0,0,0-1.61,1.35c-.77.73-1.62,1.6-2.54,2.61s-1.86,2.06-2.8,3.15-1.76,2.1-2.45,3a1.14,1.14,0,0,1-1,.42,2.7,2.7,0,0,1-1.15-.36,3.4,3.4,0,0,1-1-.77A1.12,1.12,0,0,1,950.43,980.19Z" transform="translate(-572.59 -820.51)"/><path class="cls-5" d="M995,960.94a1.7,1.7,0,0,1,1.19.22,5,5,0,0,1,1.19.87,5.07,5.07,0,0,1,1.35.94,2.77,2.77,0,0,1,.77,1,10.88,10.88,0,0,1,.58,2.52,6,6,0,0,0,1.52.48c.58.11,1.1.22,1.57.35a3.2,3.2,0,0,1,1.26.58,2.39,2.39,0,0,0,1.51.39c.43,0,.66.08.68.25s-.1.31-.36.39a19,19,0,0,1-3.15.77,8.72,8.72,0,0,1-3.22-.06,14.11,14.11,0,0,1-1.54,4.06,23.81,23.81,0,0,1-2.39,3.47c-.51.6-1.09,1.24-1.73,1.9a11.41,11.41,0,0,1-2.06,1.68,7.24,7.24,0,0,1-2.32.93,4,4,0,0,1-2.51-.32,5,5,0,0,1-2.22-1.71,5.74,5.74,0,0,1-1-2.38,8.78,8.78,0,0,1,0-2.71,17.83,17.83,0,0,1,.58-2.67,22.25,22.25,0,0,1,1.61-3.6,16.82,16.82,0,0,1,2.28-3.19,15.89,15.89,0,0,1,2.93-2.51A13.22,13.22,0,0,1,995,960.94Zm1.93,7.4a4.22,4.22,0,0,1-2-3.41,13.25,13.25,0,0,0-3.34,2.8,16.27,16.27,0,0,0-2.39,3.57,22.67,22.67,0,0,0-1.09,2.45,8.61,8.61,0,0,0-.58,2.64,6.3,6.3,0,0,0,.16,1.58.83.83,0,0,0,.64.7,1.73,1.73,0,0,0,1.23-.38,12,12,0,0,0,1.9-1.71c.17-.17.48-.52.93-1.06s1-1.19,1.51-2,1.12-1.61,1.68-2.51A16.67,16.67,0,0,0,996.91,968.34Z" transform="translate(-572.59 -820.51)"/><path class="cls-5" d="M1027.81,968.66c.69-.51,1.07-.71,1.16-.61s-.15.48-.71,1.13c-1,1.24-2.1,2.49-3.22,3.73s-2.23,2.42-3.34,3.51a35.51,35.51,0,0,1-3.38,2.93,14.12,14.12,0,0,1-3.38,1.93,4.93,4.93,0,0,1-1.84,2.32,5.09,5.09,0,0,1-2.57.84,7,7,0,0,1-2.87-.52,7.41,7.41,0,0,1-2.64-1.74,4.6,4.6,0,0,1-.64-.83,4.16,4.16,0,0,1-.49-1.1,3,3,0,0,1-.09-1.09,1.29,1.29,0,0,1,.58-.9,1.2,1.2,0,0,1,.8-.29,11.21,11.21,0,0,1,1.16,0,8.39,8.39,0,0,1,1.16.13l.87.16c.6,0,1.17.06,1.7.06a9.11,9.11,0,0,0,1.58-.13,9.87,9.87,0,0,0,.19-2v-1.84a34.32,34.32,0,0,0,0-3.51c-.06-1.18-.16-2.37-.29-3.57a62.06,62.06,0,0,1-4.92,4.77q-2.67,2.31-4.8,4c-.6.47-.88.55-.84.22a3,3,0,0,1,.58-1.19,6.4,6.4,0,0,0,.78-1.25,14.14,14.14,0,0,0,.54-1.32c.15-.43.29-.82.42-1.16a1.66,1.66,0,0,1,.52-.77c.56-.56,1.49-1.61,2.8-3.16a43.26,43.26,0,0,0,4.22-6.24.78.78,0,0,1,.83-.39,2.73,2.73,0,0,1,1.16.42,5.32,5.32,0,0,1,1.06.83,1.9,1.9,0,0,1,.55.81q.58,3.42,1.06,7.08a32.33,32.33,0,0,1,.16,7.21,12.51,12.51,0,0,0,2.55-1.64c.88-.71,1.73-1.43,2.57-2.16s1.64-1.41,2.42-2.06a10.2,10.2,0,0,1,2.12-1.41,12,12,0,0,1,1.29-.52A4,4,0,0,0,1027.81,968.66Z" transform="translate(-572.59 -820.51)"/><path class="cls-5" d="M1042.81,977.16a14,14,0,0,0,4.57-.9,26.31,26.31,0,0,0,4.35-2.09,37.83,37.83,0,0,0,4-2.77c1.27-1,2.41-2,3.44-2.87a1,1,0,0,1,.78-.32c.21,0,.17.3-.13.78a8.48,8.48,0,0,0-1.06,2.57,3.48,3.48,0,0,1-.62,1.55,18.19,18.19,0,0,1-1.38,1.51,21,21,0,0,1-2,1.74c-.75.58-1.53,1.12-2.35,1.64a13.23,13.23,0,0,1-2.44,1.22,12.64,12.64,0,0,1-2.32.74,15.25,15.25,0,0,1-2.58.36,5.44,5.44,0,0,1-2-.45,8.55,8.55,0,0,1-2.12-1.23,10.26,10.26,0,0,1-1.74-1.67,3.26,3.26,0,0,1-.81-1.74,17.47,17.47,0,0,1,.39-6,19.13,19.13,0,0,1,2.09-5.15,14.33,14.33,0,0,1,3.41-3.92,14.15,14.15,0,0,1,4.41-2.39,2.91,2.91,0,0,1,1.81.07,7.64,7.64,0,0,1,2,.93,7.13,7.13,0,0,1,1.55,1.35,2.31,2.31,0,0,1,.61,1.39,3.87,3.87,0,0,1-.45,1.64,17.05,17.05,0,0,1-1.13,2c-.45.69-.94,1.4-1.48,2.13l-1.51,2.06c-.48.6-.82.81-1,.64s-.2-.62.06-1.35a9.38,9.38,0,0,0,.35-1.13,3,3,0,0,0,.1-.74,1.77,1.77,0,0,0-.1-.61,6.66,6.66,0,0,1-.16-.67,2.21,2.21,0,0,1,.1-1c.11-.34.25-.71.42-1.1s.34-.79.51-1.22a7.5,7.5,0,0,0,.39-1.35,8.78,8.78,0,0,0-3.44,2.41,17.3,17.3,0,0,0-2.8,4.09,19,19,0,0,0-1.68,4.93A12,12,0,0,0,1042.81,977.16Z" transform="translate(-572.59 -820.51)"/><path class="cls-5" d="M1067.53,960.94a1.69,1.69,0,0,1,1.19.22,59,59,0,0,0,2.55,1.81,3,3,0,0,1,.77,1,11.42,11.42,0,0,1,.58,2.52,6,6,0,0,0,1.51.48c.58.11,1.11.22,1.58.35a3.22,3.22,0,0,1,1.25.58,2.43,2.43,0,0,0,1.52.39c.43,0,.65.08.67.25s-.09.31-.35.39a18.92,18.92,0,0,1-3.16.77,8.67,8.67,0,0,1-3.21-.06,14.43,14.43,0,0,1-1.55,4.06,23.77,23.77,0,0,1-2.38,3.47c-.52.6-1.1,1.24-1.74,1.9a10.76,10.76,0,0,1-2.06,1.68,7.15,7.15,0,0,1-2.32.93,4.05,4.05,0,0,1-2.51-.32,5,5,0,0,1-2.22-1.71,6,6,0,0,1-1-2.38,8.78,8.78,0,0,1,0-2.71,17.83,17.83,0,0,1,.58-2.67,23.15,23.15,0,0,1,1.61-3.6,16.87,16.87,0,0,1,2.29-3.19,15.57,15.57,0,0,1,2.93-2.51A13.3,13.3,0,0,1,1067.53,960.94Zm1.93,7.4a4.21,4.21,0,0,1-2-3.41,13.29,13.29,0,0,0-3.35,2.8,16.21,16.21,0,0,0-2.38,3.57,22.64,22.64,0,0,0-1.1,2.45,8.91,8.91,0,0,0-.58,2.64,6.24,6.24,0,0,0,.17,1.58.82.82,0,0,0,.64.7,1.71,1.71,0,0,0,1.22-.38,11.16,11.16,0,0,0,1.9-1.71c.17-.17.48-.52.93-1.06s1-1.19,1.52-2,1.11-1.61,1.67-2.51A15.9,15.9,0,0,0,1069.46,968.34Z" transform="translate(-572.59 -820.51)"/><path class="cls-5" d="M1080.79,972.75c.56-1.22,1.08-2.48,1.55-3.76-.86.55-1.85,1.14-3,1.77s-2.13,1.14-3,1.57-1.15.37-1.13.07a1.68,1.68,0,0,1,.42-.9c.78-.82,1.61-1.76,2.51-2.84s1.78-2.15,2.64-3.25,1.65-2.14,2.35-3.15a26.06,26.06,0,0,0,1.65-2.61.79.79,0,0,1,.9-.35,3.36,3.36,0,0,1,1.28.48,4.34,4.34,0,0,1,1.1.93,1.3,1.3,0,0,1,.38,1l-1.41,5.8c.51-.56,1.11-1.2,1.8-1.9s1.39-1.37,2.09-2,1.39-1.13,2-1.61a5.9,5.9,0,0,1,1.61-.9,2.41,2.41,0,0,1,1.19.07,6.85,6.85,0,0,1,1.58.58,5.29,5.29,0,0,1,1.32.9,1.17,1.17,0,0,1,.48,1c-.08.6-.25,1.47-.48,2.61s-.44,2.26-.61,3.38a19.86,19.86,0,0,0-.26,2.93c0,.84.17,1.28.52,1.32a3.24,3.24,0,0,0,1.8-.58,21.31,21.31,0,0,0,2.22-1.51c.75-.58,1.45-1.14,2.09-1.68a9.51,9.51,0,0,1,1.48-1.06,7.1,7.1,0,0,1,1.64-.58,6.32,6.32,0,0,0,2-.9,1.1,1.1,0,0,1,.61-.16c.15,0,.12.2-.1.55-.68.94-1.46,2-2.32,3.15s-1.73,2.25-2.63,3.28a22.54,22.54,0,0,1-2.64,2.58,3.89,3.89,0,0,1-2.32,1,3.44,3.44,0,0,1-1.32-.48,10.43,10.43,0,0,1-1.45-1,13.7,13.7,0,0,1-1.29-1.22,6.22,6.22,0,0,1-.84-1.16,9.22,9.22,0,0,1-.8-3.58,41,41,0,0,1,0-4.15q-1.55,1.29-3.25,2.93c-1.14,1.09-2.25,2.21-3.35,3.35s-2.12,2.24-3.09,3.31-1.79,2-2.48,2.84l-1,1.09a1.23,1.23,0,0,1-1.13.26,3.74,3.74,0,0,1-1.41-.58,3.26,3.26,0,0,1-1-1,.78.78,0,0,1,0-1l1.16-1.48A19.81,19.81,0,0,0,1080.79,972.75Z" transform="translate(-572.59 -820.51)"/><path class="cls-5" d="M1134.29,955.14c.39,0,.57,0,.55.1s-.15.14-.39.23l-.83.29c-.32.1-.59.2-.81.29a7,7,0,0,0-1.09.58c-.26.17-.48.33-.68.48a3.4,3.4,0,0,1-.58.38,2.12,2.12,0,0,1-.8.23,17.27,17.27,0,0,1-2.19.29c-.86.06-1.77.11-2.74.13l-2.93.09c-1,0-1.89.11-2.7.2a2.39,2.39,0,0,1-.64.06l-1.29,1.77c-.43.58-.84,1.15-1.22,1.71l-2.16,2.9c-.71.94-1.45,1.88-2.22,2.83l-.39,1.42q-.45,1.67-.87,3.54a14.71,14.71,0,0,0-.42,3.15c0,1,.3,1.62.78,1.9a1.83,1.83,0,0,0,1.54.16,8.93,8.93,0,0,0,2.22-1.25c1-.71,2.09-1.55,3.25-2.52s2.32-2,3.48-3.05a31.66,31.66,0,0,0,2.9-3c.3-.34.5-.5.61-.48s.07.24-.1.67a7.72,7.72,0,0,0-.45,1.29,2,2,0,0,0,.13,1.22,1.53,1.53,0,0,1-.06,1.16,21.58,21.58,0,0,1-2.29,3.13,30.41,30.41,0,0,1-2.9,2.89,28.37,28.37,0,0,1-2.86,2.22,7.69,7.69,0,0,1-2.13,1.1,4.27,4.27,0,0,1-2.06-.16,10.46,10.46,0,0,1-2.55-1.1,8.76,8.76,0,0,1-2.23-1.83,3.88,3.88,0,0,1-1-2.38c0-.69-.05-1.37,0-2s.07-1.36.16-2.09a17.72,17.72,0,0,0-2.71,1.28l-.38.2a1,1,0,0,1-.42.12c-.11,0-.15-.06-.13-.19a2.08,2.08,0,0,1,.48-.71c.73-.85,1.44-1.76,2.13-2.7s1.38-1.89,2.08-2.83c.35-1.2.75-2.4,1.21-3.58a34.28,34.28,0,0,1,1.6-3.51,11.59,11.59,0,0,0-3.08,1.68,1.07,1.07,0,0,1-1,.16,4,4,0,0,1-1.2-.55,3.6,3.6,0,0,1-1-.9,1.06,1.06,0,0,1-.26-1c-.09-.39.45-1,1.61-1.87a.68.68,0,0,1,.64-.45,2.56,2.56,0,0,1,1.11.13,13.35,13.35,0,0,1,2.61-.78c.91-.17,1.82-.3,2.72-.38a52.3,52.3,0,0,1,7.21-9.27,3.47,3.47,0,0,1,2-1.19,3,3,0,0,1,1.74.16,2.64,2.64,0,0,1,1.16.9,1.19,1.19,0,0,1,.29,1,28.38,28.38,0,0,1-1.74,4c-.68,1.31-1.44,2.59-2.25,3.83,2.19-.08,4.49-.14,6.92-.16S1132.28,955.1,1134.29,955.14Z" transform="translate(-572.59 -820.51)"/><path class="cls-5" d="M1129,978.19a23.1,23.1,0,0,0,2.87-1.9c1-.79,2.13-1.66,3.25-2.6s2.24-1.91,3.38-2.9l3.25-2.83c.17-.13.28-.12.32,0a.7.7,0,0,1-.13.54c-.43.78-.75,1.39-1,1.84a17,17,0,0,0-.65,1.58,8.06,8.06,0,0,1-1.67,2.28c-.9,1-1.88,1.95-2.93,2.93s-2.09,1.9-3.12,2.74a17.79,17.79,0,0,1-2.25,1.64,2.31,2.31,0,0,1-1.16.16,7.77,7.77,0,0,1-1.77-.29,8.09,8.09,0,0,1-1.77-.71,2.46,2.46,0,0,1-1.16-1.16,3.74,3.74,0,0,1-.23-1.86,15,15,0,0,1,.48-2.55c.26-.92.58-1.88,1-2.89a30.92,30.92,0,0,1,1.29-2.93l-1.68,1.29a4,4,0,0,1-1,.41l-.77.2c-.26.06-.54.15-.84.25a5.17,5.17,0,0,0-1.1.62q-.32.25-.48.12c-.11-.08,0-.3.16-.64.69-1.07,1.44-2.17,2.26-3.28s1.6-2.16,2.38-3.12,1.49-1.83,2.15-2.58a22.26,22.26,0,0,1,1.58-1.64,1.63,1.63,0,0,1,1.1-.39,3.64,3.64,0,0,1,2.73.65,1.46,1.46,0,0,1,.55,1.67c-.3.77-.77,1.9-1.42,3.38s-1.27,3-1.9,4.6-1.12,3.07-1.51,4.45A5.19,5.19,0,0,0,1129,978.19Zm6.12-24.91a4.71,4.71,0,0,1,.32-.42,1,1,0,0,1,.65-.29,4.78,4.78,0,0,0,1.41-.39,8.83,8.83,0,0,1,1.39-.45,1.67,1.67,0,0,1,1,0c.24.11.31.45.23,1a2.45,2.45,0,0,1-.61,1.39,5.86,5.86,0,0,1-1.16.87c-.45.25-1,.52-1.52.8a5.86,5.86,0,0,0-1.61,1.26c-.3.3-.55.41-.77.35s-.32-.27-.32-.61A7.57,7.57,0,0,1,1135.13,953.28Z" transform="translate(-572.59 -820.51)"/><path class="cls-5" d="M1150.9,962.16a2.19,2.19,0,0,1,1.23.32,5.43,5.43,0,0,1,1.22.9,2.3,2.3,0,0,1,.64,1c.09.35-.1.54-.58.58a11.29,11.29,0,0,0-4.57,2,17.29,17.29,0,0,0-3.6,3.48,16,16,0,0,0-1.1,1.57,11.66,11.66,0,0,0-1,1.94,7.64,7.64,0,0,0-.49,2,3.72,3.72,0,0,0,.29,1.87,45.38,45.38,0,0,0,7.28-6.89q3.35-3.93,6.37-7.72c.13-.18.26-.22.39-.13a1.88,1.88,0,0,1,.45.45c.17.21.35.46.55.74a2.85,2.85,0,0,0,.61.67,2,2,0,0,1,.55,1.36,7,7,0,0,1-.17,1.73l-1.15,4.77c1.41-1,2.82-1.83,4.21-2.64s2.74-1.52,4-2.13,1.5-.53.9.07a15.73,15.73,0,0,0-1.26,1.38,10.63,10.63,0,0,0-.8,1.16c-.22.37-.41.71-.58,1s-.37.66-.58,1a11.75,11.75,0,0,1-3,2.7q-2.27,1.62-5,3.67-1.1,3.09-2.39,6t-2.76,6.12q-1.94,4.11-4.13,8.21a49.66,49.66,0,0,1-5.08,7.69.9.9,0,0,1-.9.38,2.63,2.63,0,0,1-1.13-.41,5.71,5.71,0,0,1-1-.84,2.57,2.57,0,0,1-.58-.87,15,15,0,0,1-.54-5.38,20.72,20.72,0,0,1,1.12-5.21,28.94,28.94,0,0,1,2.32-5q1.41-2.41,3-4.54a32,32,0,0,1,3.9-4.34c1.56-1.48,3.25-2.93,5.05-4.35a44,44,0,0,0,1.74-4.5c-.9,1.11-1.8,2.2-2.7,3.25s-1.76,2-2.58,2.86a26.19,26.19,0,0,1-2.25,2.13,5.39,5.39,0,0,1-1.74,1,2.23,2.23,0,0,1-1.16-.07,5.28,5.28,0,0,1-1-.38,9.33,9.33,0,0,1-3.38-3.35,7.35,7.35,0,0,1-.9-3.83,9,9,0,0,1,1.13-3.87,13.57,13.57,0,0,1,2.74-3.47,17.92,17.92,0,0,1,3.86-2.71A15,15,0,0,1,1150.9,962.16Zm-2.19,23.18a7.32,7.32,0,0,0-.58.67c-.17.24-.34.46-.51.68a46.08,46.08,0,0,0-4.12,6.34,20.8,20.8,0,0,0-2.38,7.12c1-1.64,2-3.32,2.86-5.06s1.75-3.49,2.61-5.25Z" transform="translate(-572.59 -820.51)"/><path class="cls-5" d="M1174.4,960.94a1.7,1.7,0,0,1,1.19.22,5,5,0,0,1,1.19.87,5.07,5.07,0,0,1,1.35.94,3,3,0,0,1,.78,1,11.42,11.42,0,0,1,.58,2.52,5.83,5.83,0,0,0,1.51.48c.58.11,1.1.22,1.58.35a3.22,3.22,0,0,1,1.25.58,2.39,2.39,0,0,0,1.51.39c.43,0,.66.08.68.25s-.1.31-.35.39a19.16,19.16,0,0,1-3.16.77,8.72,8.72,0,0,1-3.22-.06,14.11,14.11,0,0,1-1.54,4.06,24.58,24.58,0,0,1-2.38,3.47c-.52.6-1.1,1.24-1.74,1.9a11.08,11.08,0,0,1-2.06,1.68,7.24,7.24,0,0,1-2.32.93,4,4,0,0,1-2.51-.32,5,5,0,0,1-2.22-1.71,5.88,5.88,0,0,1-1-2.38,8.78,8.78,0,0,1,0-2.71,17.83,17.83,0,0,1,.58-2.67,23.15,23.15,0,0,1,1.61-3.6,16.82,16.82,0,0,1,2.28-3.19,15.89,15.89,0,0,1,2.93-2.51A13.37,13.37,0,0,1,1174.4,960.94Zm1.93,7.4a4.21,4.21,0,0,1-2-3.41,13.12,13.12,0,0,0-3.35,2.8,16.21,16.21,0,0,0-2.38,3.57,20.85,20.85,0,0,0-1.1,2.45,8.61,8.61,0,0,0-.58,2.64,6.8,6.8,0,0,0,.16,1.58.83.83,0,0,0,.65.7,1.71,1.71,0,0,0,1.22-.38,11.55,11.55,0,0,0,1.9-1.71c.17-.17.48-.52.93-1.06s1-1.19,1.52-2,1.11-1.61,1.67-2.51A15.9,15.9,0,0,0,1176.33,968.34Z" transform="translate(-572.59 -820.51)"/></svg>