<?xml version="1.0" encoding="utf-8"?>
<!-- Generator: Adobe Illustrator 24.0.2, SVG Export Plug-In . SVG Version: 6.00 Build 0)  -->
<svg version="1.1" id="Capa_1" xmlns="http://www.w3.org/2000/svg" xmlns:xlink="http://www.w3.org/1999/xlink" x="0px" y="0px"
	 viewBox="0 0 702.6 237.4" style="enable-background:new 0 0 702.6 237.4;" xml:space="preserve">
<style type="text/css">
	.st0{fill:#FFFFFF;}
</style>
<g id="Capa_2_1_">
	<g id="Capa_1-2">
		<path class="st0" d="M308,153.5c-3.9,1.6-8,2.8-12.2,3.6c-5.1,1-10.3,1.5-15.5,1.5c-12.2,0-21.9-3.4-29.2-10.3
			c-7.3-6.8-11-16.5-11-29c0-12.2,3.9-21.8,11.8-28.7c7.9-6.9,17.9-10.4,30.1-10.3c8.6-0.1,17.2,1.2,25.4,4.1v21.3
			c-3.2-1.3-6.6-2.3-10-2.9c-4.1-0.9-8.2-1.4-12.4-1.5c-12.8,0-19.1,6.2-19.1,18.5c0,11.9,6.3,17.8,18.8,17.8
			c8-0.1,15.9-1.7,23.3-4.5V153.5z"/>
		<path class="st0" d="M351.7,158.6c-11.9,0-21.4-3.6-28.8-10.8s-11-16.6-11-28.3c0-11.7,3.8-21.2,11.5-28.4
			c7.7-7.2,17.6-10.8,29.9-10.8c11.9,0,21.5,3.5,28.8,10.5c7.4,7,11,16.1,11,27.4c0,12.4-3.9,22.2-11.6,29.5
			C373.8,155,363.8,158.6,351.7,158.6z M352.8,137.5c4.6,0,8.2-1.5,10.9-4.5s4-7.5,4-13.5c0-6-1.3-10.6-3.9-13.7
			c-2.6-3.1-6.5-4.8-10.5-4.6c-4.8,0-8.6,1.5-11.4,4.6c-2.8,3.1-4.2,7.6-4.2,13.6c0,5.9,1.4,10.4,4.1,13.4
			C344.4,136,348.1,137.5,352.8,137.5L352.8,137.5z"/>
		<path class="st0" d="M468.9,157.1h-21.4l-24.8-34.3v34.3h-24.6V81.8h21.8l24.5,34.4V81.8h24.6V157.1z"/>
		<path class="st0" d="M541.4,153.5c-3.9,1.6-8,2.8-12.2,3.6c-5.1,1-10.3,1.5-15.5,1.5c-12.2,0-21.9-3.4-29.2-10.3
			c-7.3-6.8-11-16.5-11-29c0-12.2,3.9-21.8,11.8-28.7c7.9-6.9,17.9-10.4,30.1-10.4c8.6-0.1,17.2,1.2,25.4,4.1v21.3
			c-3.2-1.3-6.6-2.3-10-2.9c-4.1-0.9-8.2-1.4-12.4-1.5c-12.8,0-19.1,6.2-19.1,18.5c0,11.9,6.3,17.8,18.8,17.8
			c8-0.1,15.9-1.6,23.3-4.5V153.5z"/>
		<path class="st0" d="M585.7,158.6c-11.9,0-21.5-3.6-28.8-10.8s-11-16.6-11-28.3c0-11.7,3.8-21.2,11.5-28.4
			c7.7-7.2,17.6-10.8,29.8-10.8c11.9,0,21.5,3.5,28.8,10.5s11,16.1,11,27.4c0,12.4-3.9,22.2-11.6,29.5
			C607.8,155,597.9,158.6,585.7,158.6z M579.7,75.2l-9.6-9c2.9-1.1,6.5-3.5,11-7c4.2-3.3,8-7.1,11.3-11.2l13.1,10.5
			c-3.5,4.3-7.8,7.9-12.5,10.7C587.8,72.4,583.4,74.4,579.7,75.2L579.7,75.2z M586.9,137.5c4.6,0,8.2-1.5,10.9-4.5s4-7.5,4-13.5
			c0-6-1.3-10.6-3.8-13.7c-2.6-3.1-6.5-4.8-10.5-4.6c-4.8,0-8.6,1.5-11.4,4.6c-2.8,3.1-4.2,7.6-4.2,13.6c0,5.9,1.4,10.4,4.1,13.4
			S582.2,137.5,586.9,137.5L586.9,137.5z"/>
		<path class="st0" d="M702.6,157.1h-21.4l-24.8-34.3v34.3h-24.6V81.8h21.8l24.5,34.4V81.8h24.6V157.1z"/>
		<path class="st0" d="M165.8,137.2c-2.9,5.3-6.5,10.1-10.6,14.5c0.5,0.6,1,1.3,1.5,1.9c0.4,0.4,0.7,0.7,1,1.1
			c5.1-4.6,9.2-7.1,14.8-7.2h0.1c8.4,0,13.5,5.6,20,12.6c3.3,3.7,6.8,7.3,10.5,10.6c4.9-1.6,9.7-3.4,14.3-5.5L165.8,137.2z"/>
		<path class="st0" d="M62.5,103.1c-0.6,0.1-0.8,1.1-0.9,1.5c-0.6,2.2-1.8,4.3-2.6,6.4c-1.4,4-1.5,4.1-1.7,4.5s-0.8,0.9-0.7,1.4
			c0.4,1.1,1.6,1.7,2.7,1.4c0.4-0.2,0.8-0.5,1-0.9c0.8-1.1,1.3-2.3,1.6-3.6c0.5-2,0.8-1.6,2.3-6.1c0.4-1.1,0.8-2.4,0.2-3.2
			c-0.4-0.4-0.8-0.7-1.2-1C62.7,103.1,62.6,103.1,62.5,103.1z"/>
		<path class="st0" d="M26.7,130.8c0.8-1.4,1.1-3,0.9-4.5c-0.2-2.9-1.6-3.5-2.7-7.3c-0.5-1.9-0.2-1.8-0.8-5.3s-1.6-7.1-1.9-7
			c-0.1,0,0,0.4,0.9,7.6c0.6,4.2,0.9,6.3,2.1,8.6c0.4,0.6,0.7,1.2,0.9,1.8C26.9,126.6,27,128.7,26.7,130.8z"/>
		<path class="st0" d="M68.4,104.1c1.1,0.8,2.5,0.9,3.8,0.3c0.5-0.2,0.8-0.6,1-1.1c0.4-1-0.5-2.2-1.2-3c-1.1-1.3-2.5-2.3-4.2-2.7
			c-0.8-0.2-1.9-0.5-2.3,0c-0.2,0.3-0.2,0.7,1.2,3.6C67.8,103.6,68,103.9,68.4,104.1z"/>
		<path class="st0" d="M28.1,40.9L28.1,40.9h0.1H28.1z"/>
		<path class="st0" d="M70.9,107.8c-0.3,0-0.7,1.2-1.6,4.1c-1.3,4.2-1.8,6.6-2.5,8.8c-1,3.5-1.1,3-2.9,8.5c-1.2,3.7-3,9.7-2.7,9.8
			s1.2-2.2,1.8-3.6c2.3-5.4,2.6-7.3,4.5-12.7c1.6-4.4,3.2-8.1,3.4-12.7C71.1,109.6,71.2,107.9,70.9,107.8z"/>
		<path class="st0" d="M30.8,41.3c1.8,0.3,3.7,0.7,5.5,1.2c-1-1-1.7-2.2-2.1-3.5c-0.4-1.3-0.5-2.7-0.3-4.1c-2,1.9-3.9,3.9-5.7,6
			l0.4,0.1C29.4,40.8,30.2,40.9,30.8,41.3z"/>
		<path class="st0" d="M152.2,10.4c3.2,2.8,6.5,5.4,9.9,7.8c0.9,0.6,1.7,1.2,2.6,1.7s1.8,1.1,2.7,1.6l2.8,1.4
			c0.4,0.3,0.9,0.5,1.4,0.7l1.4,0.6l1.4,0.6l1.5,0.6c1,0.4,2,0.8,2.9,1.1l3,0.9c0.5,0.2,1,0.3,1.5,0.5l1.5,0.4
			c7.3,1.8,14.8,2.8,22.3,3c-16.5-15.9-38.2-26.9-65.6-30.3l0.7,0.6C145.8,4.7,149,7.6,152.2,10.4z"/>
		<path class="st0" d="M13.8,112c-0.4-1.4-0.7-2.8-0.8-4.3c-0.1-1.7,0.2-2.6,0-2.6s-1.5,2-1.6,4.4c-0.1,1.7,0.5,2.3,1.3,5
			c1.2,4.2,1,6.6,1.5,6.6s1.2-2.7,0.7-5.4C14.7,114.3,14.4,114.5,13.8,112z"/>
		<path class="st0" d="M188.9,163.8c-6.2-6.7-10.2-11.1-16.5-11.1l0,0c-5.8,0-9.6,3.8-18.1,12.2c-2.5,2.5-5.4,5.3-8.7,8.5
			c-11.5,10.9-23.8,20.9-36.7,30.1c-0.8,1.5-1.5,2.9-2.2,4.1c9.6-1.3,19-4.3,27.5-8.9c5.5-3.1,10.8-6.8,15.6-11
			c6.5-5.3,12-9.9,21.4-10.9c5.4-0.6,9.4,0.3,23.6,5.2c7.5,2.6,15.1,5.3,22.7,8.2c0.6-0.7,1.1-1.4,1.7-2.1c-4.5-2.3-8.7-5-12.8-8
			C200,175.2,194.2,169.7,188.9,163.8z"/>
		<path class="st0" d="M171.6,181.2c-8,0.9-12.8,4.9-18.9,9.9c-5,4.4-10.5,8.2-16.3,11.5c-10.1,5.4-21.2,8.7-32.6,9.8
			c-0.8,1.4-1.6,2.6-2.4,3.9c-2.9,4.4-5.4,9.1-7.6,13.9v0.1c8.7,1.8,17.5,2.7,26.3,2.7c44.6,0,74.2-16.3,94.3-39.1
			c-7.1-2.7-14.1-5.2-21.1-7.6C179.1,181.3,175.9,180.7,171.6,181.2z"/>
		<path class="st0" d="M209.2,176.5c4,3,8.3,5.6,12.7,7.9c2.8-3.8,5.3-7.8,7.7-11.8l-7.4-4c-4.9,2.3-10,4.4-15.2,6.2
			C207.7,175.3,208.4,175.9,209.2,176.5z"/>
		<path class="st0" d="M78.4,79.7c-4.6,0.1-9.1-1.1-13-3.3c4.7-3.2,10.2-5,15.9-5c2.8,0,5.6,0.5,8.3,1.3c-2.4-2.2-4.8-4.4-7.4-6.5
			c-1.1-0.9-2.1-1.7-3.2-2.5c-0.8,1.8-3.6,4.3-6.7,5.3c-6.2,2-12.2-2.2-13.2-2.9c4.1-2.3,8.5-3.8,13.2-4.3c1.1-0.1,2.4-0.3,3.6-0.3
			c-2.7-1.9-5.4-3.7-8.3-5.4c-1.1,1.5-5.1,3.6-9.3,3.7c-2.8,0-5.5-0.8-7.8-2.2c3.2-1.9,6.7-3.1,10.4-3.3c0.2,0,1.7-0.1,3.3-0.1
			c-3.2-1.8-6.5-3.4-9.8-4.8c-0.9,1.3-2.3,2.2-3.9,2.5c-3.3,0.5-5.7-2.2-5.9-2.4c1.1-0.5,2.2-1,3.4-1.2c1-0.2,2-0.3,3-0.3
			c-3.1-1.2-6.1-2.3-9.3-3.3c-1.2,1.3-2.7,2.2-4.4,2.6c-1.3,0.4-2.7,0.4-4,0.2c0.6-1.5,1.7-2.7,3.2-3.4c0.6-0.3,1.2-0.4,1.8-0.5
			c-2.5-0.7-4.9-1.3-7.4-1.9c0.1,0.8-1.6,2.5-3.5,2.9c-0.7,0.2-1.5,0.2-2.2,0C9.3,63.9,0,88.7,0,116.4v0.6c0,9.2,1,18.4,3.1,27.4
			c7.1,1.1,14.3,2.1,21.5,2.9c-1.5-2.8-2.8-5.7-3.7-8.8c-0.7-2-3-6.4-7.6-15c-3.4-6.4-4.4-7.7-5-11c-0.6-3.2-0.4-6.5,0.5-9.6
			c0.8-2.7,1.5-5.1,3.6-6c1.3-0.6,2.8-0.4,3.4-1.5c0.3-0.8,0.3-1.7-0.1-2.5c-0.8-2.1-1.9-4.1-3.2-6c-2.8-4.9,0.2-13.3,3.7-17.7
			c0.5-0.9,1-1.8,1.6-2.6c1.6-1.8,3.7-3.2,6-3.8c1.1-0.3,0.9-0.1,2.9-0.5s3.1-0.7,4.2-0.9c1.8-0.3,2.3,0.1,4.3,0.5
			c0.7,0.1,1.4,0.3,3,0.5c5.2,0.7,9.4-1,14.1,1c1.1,0.5,1.8,1.2,2.9,1.7c2.2,0.9,3.3,2.4,5.4,4.9c1.5,1.8,5.4,6.6,5.1,12.6
			c-0.1,3.4-1.5,6.1,0,9.3c0.4,0.7,0.8,1.3,1.4,1.9c1.8,1.7,3.6,1,5.6,2.1c3.3,1.8,3.8,6.3,3.9,6.6c0.2,2.4-0.8,4.3-1.6,5.9
			c-1.7,3.5,0.7-0.4-4.7,14c-4.3,11.6-4,9.2-5.5,14.1c-1.4,4.5-4.1,8.6-5.3,13.2c9.8,0.2,19.6,0.1,29.3-0.3
			c-6.3-8.5-9.9-19.8-9.9-32.9v-0.6c0-15.5,5.8-29.4,15.7-38.4c-0.7-0.8-1.5-1.6-2.2-2.3C88.2,78,83.4,79.6,78.4,79.7z"/>
		<path class="st0" d="M60.9,97.8c0.4-0.6,1.4-1.8,1.1-2.1s-2,0.2-3.1,1.2c-0.9,0.8-1.7,1.8-2.1,2.9c-3.3,7.8-2.2,4.7-3.1,7.4
			c-2.3,6.1-2.5,6.8-2.5,8c0,0.8,0.1,1.9,0,4.1c0,1.6-0.2,2.3,0,2.4c0.3,0.1,1.2-2.9,2.2-5.7C56.9,105.8,58.6,100.8,60.9,97.8z"/>
		<path class="st0" d="M60.6,130c1.3-3.3,1.6-3.7,2.7-6.6c0.8-2,1.2-4.1,1.3-6.3c0-0.6,0-1.1-0.1-1.7c0.9-1.3,1.7-2.6,2.3-4.1
			c0.5-1,0.7-2.1,0.6-3.2c0-0.2-0.2-1.3-0.6-1.4c-0.5,0-0.8,2.8-2.1,6.7c-0.8,2.4-1,2.2-2.1,5.1s-0.9,3.3-2.1,7.1
			c-1.3,4.1-1.5,3.9-2.5,7.1c-0.6,2.3-1.1,4.6-1.4,6.9c-0.2,1.4-0.5,4.3,0,4.4c0.3,0.1,1-1.2,1.4-2.3c0.4-1.3,0.4-2.7,0.2-4
			C58,136.6,58.9,134.4,60.6,130z"/>
		<path class="st0" d="M57.5,120.6c-0.7-0.4-2,0.4-2.8,1.5c-0.9,1.3-0.3,2.1-1,4.5c-0.6,1.9-1.4,2.9-1.1,3.1s1-0.3,1.5-0.8
			c0.8-0.8,0.8-1.4,1.3-2.5c1-2,2.1-2,2.5-3.6C58,122,58,120.9,57.5,120.6z"/>
		<path class="st0" d="M43.3,101.4c-0.6,0.5-1,1.1-1.3,1.8c-0.3,0.8-0.4,1.7-0.3,2.6c0,1.5-0.2,1.4-0.3,3.4c-0.2,2.2-0.1,3.3,0,5.9
			c0,5.6-0.3,5.9,0,9c0.2,1.9,0.6,5,0.9,4.9s0.6-5.6,0.8-11.6c0.3-8.9,0-10.6,1.5-13.3c0.6-1.1,1.7-2.8,1.2-3.4
			S44.1,100.8,43.3,101.4z"/>
		<path class="st0" d="M52.5,102.2c0-0.6-0.1-2.4-0.8-2.6c-1-0.2-2.7,2.6-3.5,5c-1,2.7,0,2.6-0.9,7.9c-0.3,1.6-0.3,3.1,0,4.7
			c0.1,0.5,0.3,1.6,0.6,1.6s0.2-2.6,0.9-5.4C49.9,108,52.7,106.6,52.5,102.2z"/>
		<path class="st0" d="M173,75.2c-9.1,0.3-18.1-0.6-27-2.6l-1.7-0.4l-0.6-0.2c8.8,4.8,15.3,12.6,20.4,22.1l40.2-22.7l-4.5,0.9
			C191,74,182,74.9,173,75.2z"/>
		<path class="st0" d="M129.7,67l-3.1-1.5c-1-0.5-2-1.1-3-1.7s-2-1.2-2.9-1.8c-3.7-2.5-7.3-5.2-10.8-8.1c-3.4-2.9-6.6-5.7-9.9-8.5
			c-3.2-2.7-6.6-5.2-10.1-7.5c-1.8-1.1-3.5-2.1-5.4-3c-0.9-0.5-1.8-0.9-2.8-1.3s-1.9-0.8-2.8-1.1s-1.9-0.6-2.9-1s-2-0.6-3-0.8
			s-2-0.4-3-0.6s-2-0.3-3.1-0.5c-4.1-0.5-8.2-0.6-12.3-0.3c-4.1,0.3-8.2,1-12.3,2l-1.5,0.4l-1.5,0.4c-1,0.3-2,0.6-3,0.9l-1.2,0.4
			c-0.4,0.4-0.8,0.8-1.2,1.2c1.7,1.3,2.9,3.2,3.4,5.3c0.2,0.9,0.2,1.8,0,2.6c2.3,0.6,4.6,1.2,6.9,1.9c-1.4-1.4-2.3-3.3-2.3-5.3
			c0-0.9,0.2-1.8,0.6-2.6c1.8,1.4,3.1,3.3,3.6,5.5c0.3,1,0.3,2,0.2,3C50,46.3,53.5,47.6,57,49c-1.8-2-3-4.5-3.5-7.1
			c-0.3-1.7-0.2-3.4,0.3-5c2.8,2.2,4.9,5.1,6.2,8.3c0.5,1.3,1.5,4.3,1.2,5.7c1.5,0.7,3,1.4,4.4,2.2s3,1.5,4.4,2.3
			c-2.1-3.2-3.3-6.9-3.6-10.7c-0.1-2.5,0.3-5,1.2-7.4c1.7,1.4,6.5,5.9,6.9,12.5c0.2,2.5-0.2,6.4-1.4,7.3c3.1,1.8,6.1,3.8,9,5.9
			c-2-3.4-2.8-7.4-2.3-11.3c0.4-2.7,1.6-5.3,3.3-7.4c3,4.1,4.5,9,4.5,14.1c0,0.5-0.2,6.2-1.8,7.3c2.9,2.2,5.6,4.5,8.2,7
			C93.6,70,93.5,66.9,94,64c0.7-4.1,2.4-8,4.9-11.3c1.3,2.5,3.6,8.1,1.9,14.4c-0.9,3.3-3,7-4.7,7.7c0.2,0.2,0.4,0.4,0.7,0.7
			c7.2-5.6,16.1-8.5,25.3-8.4c3.2,0,6.4,0.3,9.6,0.8l-0.4-0.2C130.8,67.5,130.2,67.3,129.7,67z"/>
		<path class="st0" d="M172.5,46.4l-1.7-0.4c-0.6-0.1-1.1-0.3-1.6-0.5l-3.3-1c-1.1-0.4-2.2-0.8-3.3-1.1l-1.6-0.5l-1.6-0.7l-1.6-0.7
			c-0.5-0.2-1.1-0.4-1.6-0.7l-3.1-1.5c-1-0.5-2-1.1-3-1.7s-2-1.2-2.9-1.8c-3.7-2.5-7.3-5.2-10.8-8.1c-3.4-2.8-6.6-5.7-9.9-8.4
			c-3.2-2.7-6.6-5.2-10.1-7.4c-1.7-1.1-3.5-2.1-5.4-3c-0.9-0.5-1.8-0.9-2.8-1.3s-1.9-0.8-2.8-1.1s-1.9-0.7-2.9-1s-2-0.6-3-0.8
			s-2-0.4-3-0.6s-2-0.3-3-0.5l-1.1-0.1c-4.6,1-9.1,2.4-13.6,3.9c1.3,0.1,2.5,0.3,3.7,0.4s2.3,0.4,3.5,0.6s2.3,0.5,3.4,0.8
			s2.3,0.6,3.4,1s2.2,0.7,3.3,1.2s2.2,0.9,3.3,1.4s2.1,1,3.2,1.5c2.1,1.1,4.1,2.3,6,3.5c3.7,2.5,7.3,5.3,10.7,8.3
			c3.4,2.9,6.6,5.9,9.8,8.7c3.1,2.8,6.5,5.4,9.9,7.8c0.9,0.6,1.7,1.2,2.6,1.7s1.8,1.1,2.7,1.6l2.8,1.5c0.4,0.3,0.9,0.5,1.4,0.7
			l1.4,0.7l1.4,0.7l1.5,0.6c1,0.4,2,0.8,3,1.1l3,0.9c0.5,0.2,1,0.3,1.5,0.5l1.6,0.4c8.3,2.1,16.9,3.1,25.4,3
			c8.7-0.1,17.3-0.8,25.9-2.3l6.4-1.1c1.4-0.3,2.8-0.6,4.1-0.9c-1-1.5-2-3-3-4.4c-7,1.1-14.2,1.8-21.3,2
			C190.5,49.3,181.4,48.4,172.5,46.4z"/>
		<path class="st0" d="M183.4,34.4l-1.7-0.4c-0.6-0.1-1.1-0.3-1.7-0.5l-3.3-1c-1.1-0.4-2.2-0.8-3.3-1.1l-1.6-0.6l-1.6-0.7l-1.6-0.7
			c-0.5-0.2-1.1-0.4-1.6-0.7l-3.1-1.5c-1-0.5-2-1.1-3-1.7s-2-1.2-2.9-1.8c-3.7-2.5-7.3-5.2-10.8-8.1c-3.4-2.8-6.6-5.7-9.9-8.4
			c-3.1-2.6-6.3-5-9.7-7.2c-1.5,0-3.1-0.1-4.7-0.1c-3.8,0-7.6,0.2-11.3,0.5c1,0.5,2,0.9,3,1.5c2.1,1.1,4.1,2.3,6,3.5
			c3.8,2.5,7.3,5.3,10.7,8.3c3.4,2.9,6.6,5.9,9.8,8.7c3.1,2.8,6.5,5.4,9.9,7.8c0.9,0.6,1.7,1.2,2.6,1.7c0.9,0.5,1.8,1.1,2.7,1.6
			l2.8,1.5c0.5,0.3,0.9,0.5,1.4,0.7l1.4,0.6l1.4,0.7l1.5,0.6c1,0.4,2,0.8,2.9,1.1l3,1c0.5,0.2,1,0.3,1.5,0.5l1.5,0.4
			c8.3,2.1,16.9,3.1,25.4,3c5.9,0,11.8-0.4,17.7-1.1c-1.5-1.8-3-3.6-4.5-5.3c-0.7,0-1.5,0.1-2.2,0.1
			C201.4,37.4,192.3,36.5,183.4,34.4z"/>
		<path class="st0" d="M214.2,58.4c-8.8,1.7-17.8,2.6-26.8,2.9c-9.1,0.3-18.2-0.6-27.1-2.6l-1.7-0.4c-0.6-0.1-1.1-0.3-1.6-0.5
			l-3.3-1c-1.1-0.4-2.2-0.8-3.2-1.2l-1.6-0.6l-1.6-0.7l-1.6-0.7c-0.5-0.2-1.1-0.4-1.6-0.7l-3.1-1.5c-1-0.5-2-1.1-3-1.7
			s-2-1.2-2.9-1.8c-3.7-2.5-7.3-5.2-10.8-8.1c-3.4-2.8-6.6-5.7-9.9-8.4c-3.2-2.7-6.6-5.2-10.1-7.5c-1.7-1.1-3.5-2.1-5.4-3
			c-0.9-0.5-1.8-0.9-2.8-1.3s-1.9-0.8-2.8-1.1s-1.9-0.6-2.9-1s-2-0.6-3-0.8s-2-0.4-3-0.6s-2-0.3-3-0.5c-4.1-0.5-8.2-0.6-12.3-0.3
			c-4.1,0.3-8.2,1-12.3,2l-0.4,0.1c-2,1.1-3.9,2.4-5.7,3.6c1.1-0.1,2.3-0.2,3.4-0.3c4.7-0.3,9.4,0,14.1,0.6c1.2,0.2,2.3,0.4,3.5,0.6
			s2.3,0.5,3.4,0.8s2.3,0.6,3.4,1s2.2,0.7,3.3,1.2s2.2,0.9,3.3,1.4s2.1,1,3.2,1.5c2.1,1.1,4.1,2.2,6,3.5c3.8,2.5,7.4,5.3,10.8,8.3
			c3.4,2.9,6.6,5.9,9.8,8.7c3.1,2.8,6.5,5.4,9.9,7.8c0.9,0.6,1.7,1.2,2.6,1.7s1.8,1.1,2.7,1.6l2.8,1.5c0.5,0.3,0.9,0.5,1.4,0.7
			l1.4,0.6l1.4,0.7l1.5,0.6c1,0.4,2,0.8,3,1.1l3,1c0.5,0.2,1,0.3,1.5,0.5l1.5,0.4c8.3,2.1,16.9,3.1,25.4,3
			c8.7-0.1,17.3-0.8,25.9-2.3l6.4-1.1c2.1-0.4,4.3-0.9,6.4-1.4l3.2-0.7l3.2-0.8l1.1-0.3l8.8-5c-0.4-0.8-0.9-1.6-1.4-2.3
			c-1.9,0.5-3.8,0.9-5.8,1.4L214.2,58.4z"/>
		<path class="st0" d="M30.6,110c0-2.6,0.6-4-0.4-4.9c-1-0.6-2.1-1-3.2-1.1c0,0,0.4,4.2,0.5,5.5c0.6,5.6,2,6.5,2.9,12
			s0.4,9.3,0.7,9.3s0.8-3.8,0.9-6.9c0.2-2.2,0.1-4.5-0.1-6.8C31.5,113,30.6,113.1,30.6,110z"/>
		<path class="st0" d="M26.1,132.8c-1.7-2.1-2.7-1.5-4.4-3.1c-3-2.9-1.4-6.5-2.6-14.5c-0.9-5.6-2.6-10-2.8-10s0.7,3.3,1.4,9.3
			c0.4,3.9,1.1,7.8,1.6,11.8c0.1,1.1,0.4,2.2,0.9,3.2c0.5,1,1.2,1.8,2,2.5c0.6,0.4,1.2,0.8,1.9,1.1c1.6,1,1.6,2.7,2.5,5.1
			c1.2,3.4,3.3,6.1,3.6,5.9c0.1,0,0-0.5-1-3.8C27.2,134.4,26.7,133.6,26.1,132.8z"/>
		<path class="st0" d="M38.7,101.8c-0.4,0-0.8,0.2-1,0.6c-0.6,0.8-1,1.8-0.9,2.9c0.1,2.8-0.7,2-0.9,7.5c-0.2,2.8-0.1,5.6,0.5,8.4
			c0.1,0.4,0.8,3.5,1.3,3.4s-0.2-4.2,0.6-10.6c0.5-4.2,0.8-6.3,1-6.9c0.5-1.5,1.3-3.7,0.5-4.6C39.5,102.1,39.1,101.9,38.7,101.8z"/>
		<path class="st0" d="M36.5,101.1l0.1-0.1c-0.4-0.2-0.9-0.4-1.3-0.6c-0.6-0.3-1.2-0.5-1.9-0.5c-0.5,0-0.8,0.1-1,0.1
			c-1.1,0.1-1.6-0.9-2.2-0.7c-0.3,0.2-0.5,0.5-0.6,0.8c0.6,1.3,1.2,2.6,1.6,3.9c1.2,3.4,1.4,4.8,1.9,4.8c0.7,0,1.7-3.5,2.5-6.6
			C35.8,101.8,36.1,101.4,36.5,101.1z"/>
		<path class="st0" d="M35.4,129.5c-0.4,0-0.7,0.6-0.8,0.9c-0.5,0.9-0.3,1.9,0.1,4.1s0.7,3.2,1,3.2s0.7-1.4,0.9-2.3
			c0.4-1.3,0.4-2.6,0.1-3.9C36.6,131.2,36.1,129.5,35.4,129.5z"/>
		<path class="st0" d="M33.9,34.7v0.2l0.1-0.1L33.9,34.7z"/>
		<path class="st0" d="M70.5,154.5h8c1,0,1.1,0,1.1,1c0.1,2,0.1,4,0.1,6c0.1,5.2,0.2,10.4,0.3,15.5c0.1,3.7,0.1,7.3,0.2,11l0.2,11.1
			c0.1,3.7,0.1,7.3,0.2,11c0.1,5,0.2,9.9,0.3,14.9v0.2c0,1,0,1-1,0.7c-2-0.6-4-1.2-6-1.8c-0.5-0.2-1-0.5-1.5-0.8
			c-3.7-1.7-7.4-3.4-11.1-5.1c-0.6-0.2-1-0.8-0.9-1.4c0.3-6.1,0.5-12.3,0.7-18.4c0.1-3.4,0.2-6.8,0.3-10.2
			c0.2-6.6,0.5-13.3,0.7-19.9c0.2-4.2,0.3-8.5,0.4-12.7c0-1.1,0-1.1,1.1-1.1L70.5,154.5L70.5,154.5z"/>
		<path class="st0" d="M124,185.3l-11.2-0.1l-23-0.2v-0.1c-1.8,0-3.6,0-5.4,0c-0.6,0-0.8,0.2-0.8,0.7c0.1,2.3,0.2,4.7,0.3,7
			c0.2,6.3,0.4,12.5,0.6,18.8c0.2,5.2,0.3,10.4,0.5,15.6c0,0.5,0.1,0.7,0.7,0.8c0.8,0.2,1.6,0.4,2.4,0.6c0.7,0.2,0.9,0,1.1-0.6
			c0.9-1.8,1.8-3.6,2.7-5.4c0.1-0.1,0.2-0.1,0.3-0.2l0.2-0.3c0.5-0.9,1-1.7,1.6-2.4l0.2-0.1l0.2-0.2l0,0c0.1-0.1,0.2-0.3,0.3-0.4
			c0.1-0.1,0.2-0.2,0.3-0.3l0,0c0.5-0.9,1.2-1.8,1.9-2.6l0.3-0.3c0.3-0.4,0.5-0.7,0.8-1.1l0.2-0.3l0,0c0-0.1,0.1-0.1,0.1-0.2
			c0,0,0.1-0.1,0.2-0.1c0.1-0.1,0.1-0.2,0.2-0.3l0,0l0.1-0.2c0,0,0.1,0,0.1,0c0.3-0.4,0.6-0.7,0.9-1.1l0,0l0.2-0.2
			c0-0.1,0-0.1,0.1-0.2c0.6-0.8,1.2-1.6,1.8-2.3c0.2-0.2,0.3-0.4,0.5-0.6l0,0c1.7-2.6,3.2-5.4,5.1-7.8c2.1-2.5,4.4-4.8,6.9-6.9
			l1.8-1.5l0.4-0.5c0.3-0.4,0.7-0.7,1.1-1.1c2.3-1.9,4.7-3.7,7-5.6c0.1-0.1,0.3-0.3,0.4-0.4C124.4,185.4,124.2,185.4,124,185.3z"/>
		<path class="st0" d="M123.8,182.2c-5-0.1-10-0.1-15-0.2l-10.9-0.2l-11.3-0.2c-0.8,0-1.7-0.1-2.5-0.1c-0.5,0-0.7-0.1-0.7-0.7
			c0-2-0.1-4.1-0.1-6.1c0-1.1,0-2.1-0.1-3.2c0-0.6,0.2-0.9,0.9-0.9c6.7-0.3,13.4-0.7,20.1-1l14.8-0.8l20.2-1.1l4.9-0.2
			c0.2,0,0.5,0,0.7,0c-0.1,0.2-0.3,0.4-0.5,0.6c-1.8,1.7-3.5,3.3-5.3,4.9c-3.3,2.9-6.6,5.8-9.9,8.7c-0.4,0.4-0.9,0.6-1.5,0.5
			C126.4,182.3,125.1,182.3,123.8,182.2L123.8,182.2z"/>
		<path class="st0" d="M88.5,153c1.1,0.2,2.1,0.3,3.1,0.4c0.4,0.1,0.9,0.2,1.3,0.4c1.2,0.8,2.5,1.4,3.6,2.3c4,3.2,8.7,5.5,13.6,6.8
			c2.7,0.8,5.4,1.3,8.1,2l0.4,0.1c-0.2,0.1-0.3,0.1-0.5,0.1l-6.2,0.3l-16.9,0.9c-3.8,0.2-7.5,0.4-11.3,0.6c-0.5,0-0.7-0.1-0.7-0.6
			c-0.1-4-0.1-8-0.2-12c0-0.6,0.1-0.9,0.8-0.9C85.3,153.4,87,153.2,88.5,153z"/>
		<path class="st0" d="M7.8,150.1l7.5,1c1.2,0.2,2.3,0.4,3.5,0.4c0.7,0.1,0.6,0.3,0.3,0.7c-1.3,1.6-2.5,3.3-3.8,4.9
			c-1.7,2.2-3.4,4.3-5.1,6.5c-0.1,0.2-0.3,0.3-0.5,0.5c-0.1-0.2-0.2-0.4-0.3-0.6c-1.2-3.4-2.4-6.8-3.6-10.2
			c-0.3-0.6-0.1-1.3,0.3-1.7c0.4-0.4,0.8-0.9,1.2-1.3C7.5,150.2,7.6,150.2,7.8,150.1z"/>
		<path class="st0" d="M135.7,164.4l-1.4-0.1l1.4-0.4c6.3-1.7,12.1-4.9,16.9-9.3c1-0.9,1-0.9,2-0.1c0.5,0.4,0.9,0.8,1.4,1.1
			s0.5,0.5,0.1,0.9c-1.1,1.1-2.2,2.1-3.3,3.2s-2.3,2.2-3.3,3.3c-0.3,0.4-0.8,0.6-1.3,0.6l-9.5,0.5L135.7,164.4L135.7,164.4z"/>
		<path class="st0" d="M58.2,154.4c-4.4-0.2-8.8-0.3-13.2-0.6c-0.6,0-0.8,0.1-0.9,0.7c-0.3,3-0.6,5.9-1,8.9c-0.4,3.5-0.8,7-1.1,10.5
			s-0.8,7.1-1.2,10.6s-0.8,7-1.2,10.6c-0.3,2.8-0.6,5.6-0.9,8.5c0,0.3,0,0.5,0.1,0.7c0,0.3,0.2,0.5,0.4,0.7c0.1,0.1,0.1,0.3,0.3,0.4
			c0.4,0.4,0.9,0.7,1.4,1c0.2,0.2,0.5,0.4,0.8,0.5c0.5,0.4,1.1,0.8,1.7,1.1l0,0c1.9,1.8,4.1,3.3,6.5,4.6l0,0
			c0.4,0.3,0.9,0.6,1.3,0.8c0.8,0.4,1.5,1,2.3,1.4c1,0.5,2,0.9,3,1.4c0.5,0.2,0.4-0.1,0.4-0.4c0-0.6,0.1-1.3,0.1-1.9l0.6-17.4
			c0.1-3.7,0.3-7.4,0.4-11.1l0.6-17.3l0.4-11.9h0v-0.9C59.1,154.4,59.1,154.5,58.2,154.4z"/>
		<path class="st0" d="M40.1,153.6c-5.2-0.5-10.3-0.9-15.5-1.4c-0.5-0.1-1,0.1-1.2,0.5c-2.1,2.7-4.1,5.4-6.2,8
			c-1.7,2.2-3.4,4.3-5,6.5c-0.2,0.3-0.3,0.6-0.3,1c0.5,1.4,1.1,2.8,1.8,4.1c1.4,2.6,3,5.1,4.5,7.6c0.2,0.3,0.4,0.6,0.7,0.9
			c0.1-0.3,0.2-0.6,0.4-0.9c0.8-1.6,2.6-2.5,4.3-2.1c2,0.4,3.3,2.3,2.9,4.3c-0.3,1.6-1.6,2.8-3.2,3c-0.7,0.1-0.7,0.1-0.3,0.7
			l4.1,5.6c0.4,0.5,0.7,1,1.1,1.5c1.2,1.3,2.4,2.6,3.6,4l3.2,3.5c0.1,0.1,0.3,0.2,0.4,0.3c0.1-0.2,0.2-0.3,0.2-0.5
			c0.3-2.6,0.6-5.2,0.9-7.8c0.4-3.4,0.7-6.8,1.1-10.1c0.4-3.6,0.8-7.1,1.2-10.6c0.3-2.8,0.6-5.6,1-8.4s0.6-5.6,0.9-8.4
			C40.7,153.7,40.7,153.7,40.1,153.6z M22.8,168.9c0,1.2-0.7,2.4-1.7,3c-0.6,0.4-1.4,0.6-2.1,0.6c-0.4,0-0.8-0.1-1.1-0.2
			c-0.2-0.1-0.5-0.2-0.7-0.3c-0.3-0.2-0.6-0.4-0.9-0.6c-0.2-0.2-0.4-0.4-0.5-0.6c-0.1-0.2-0.2-0.3-0.3-0.5c0-0.1-0.1-0.2-0.1-0.4
			l0,0c-0.1-0.4-0.2-0.7-0.1-1.1c0-1,0.4-1.9,1.2-2.5c1.1-1,2.8-1.3,4.2-0.7c1.1,0.5,1.9,1.4,2.2,2.6
			C22.8,168.4,22.8,168.7,22.8,168.9L22.8,168.9z M31.4,153.8c2-0.1,3.8,1.5,3.9,3.5c0.1,2-1.5,3.8-3.5,3.9c-0.1,0-0.3,0-0.4,0
			c-2,0.1-3.8-1.5-3.9-3.5s1.5-3.8,3.5-3.9C31.2,153.8,31.3,153.8,31.4,153.8z M31.7,175.7c-2.1,0-3.7-1.6-3.8-3.7
			c0.1-2.1,1.9-3.7,4-3.6c2,0.1,3.5,1.7,3.6,3.6C35.5,174.1,33.8,175.7,31.7,175.7C31.7,175.7,31.7,175.7,31.7,175.7L31.7,175.7z"/>
		<path class="st0" d="M60.4,78.3L60,77.2c0.2-0.3,0.3-0.6,0.3-0.9c0-0.3,0-0.7-0.2-1c-0.6-0.2-1.3-0.4-1.9-0.5h-0.3
			c0.4-0.2,0.7-0.5,0.9-0.8c0.2-0.3,0.3-0.6,0.3-1c-0.1-0.7-1.1-1.3-2-1.4c-0.6-0.1-1.3,0.1-1.5-0.3c0-0.1-0.1-0.1-0.1-0.2
			c0-0.2,0-0.4,0-0.6c0,0,0-0.1,0-0.1c-0.1-1.1-0.6-2.1-1.4-2.8c-1-0.7-1.7-0.2-3-1c-1-0.7-1.1-1.4-1.9-1.4s-0.9,0.5-1.5,0.3
			s-0.5-0.7-1-0.8c-0.2,0-0.4,0-0.6,0.1c-0.6,0.7-1.1,1.4-1.5,2.1c-1.6,2.4-2,3.9-2.3,3.8s-0.4-1,0.1-5.4c-0.3,0-0.7,0-1,0.1
			c-0.5,0.1-1.1,0.2-1.5,0.4c0,0,0.1,0,0.3,0c0,0.8,0.1,1.6,0.3,2.4c0.5,2.1,0.9,2.7,0.7,3.7c-0.1,0.5-0.4,1.1-0.7,1.5
			c-0.1-1-0.8-1.9-1.7-2.3c-0.4-0.1-0.8-0.1-1.2,0c-0.1,0-0.2,0-0.3,0c-0.4-0.2-0.7-0.6-0.8-1c-0.4-1.8-0.5-3.6-0.5-5.4
			c-0.2-0.1-0.4-0.2-0.6-0.2c-0.3,0-0.6,0-0.8,0c-0.2,0.5-0.2,1.1-0.2,1.7c0.2,1,0.6,1.9,1.3,2.7c-0.1,0.1-1.9-3.1-3.9-3
			c-1.2,0-2,1.2-2.5,0.9s-0.1-1.4,0.2-2.3c-0.3,0-0.5,0-0.8,0.1c-0.3,0.1-0.6,0.1-0.9,0.3c0.1,0.2,0.2,0.6,0.4,1.1
			c0.3,0.7,0.5,1,0.4,1.2s-0.2,0.1-0.7,0.4l-0.3,0.2l-0.3,0.1c-0.4,0.2-0.9,0.3-1.4,0.3c-0.8-0.3-1.3-1.1-1.3-2
			c-0.2,0.1-0.4,0.2-0.6,0.3c-0.3,0.1-0.5,0.3-0.7,0.5c1.8,1.3,2.1,1.7,2.1,1.8s-0.1,0-0.4,0.1c-0.1,0-0.2,0.1-0.3,0.1
			c-0.2,0.1-0.4,0.2-0.5,0.4c-0.2,0.2-0.4,0.4-0.6,0.7c-0.4,0.6-0.3,1.1-0.4,1.2s-0.6-0.5-1.7-3c-0.3,0.2-0.6,0.3-0.9,0.6
			c-0.2,0.2-0.4,0.4-0.6,0.7c2.3,1.9,2.8,2.5,2.8,2.6c-0.1,0.1-0.1,0.1-0.2,0.2c-0.1,0.1-0.3,0.1-0.4,0.2c-0.2,0.1-0.5,0.2-0.7,0.3
			c-0.1,0.1-0.2,0.1-0.3,0.2c-0.2,0.1-0.3,0.2-0.5,0.4c-0.2,0.2-0.8,0.1-2.6-0.9c-0.4,0.4-0.7,0.9-0.8,1.5c0.8,0,1.5,0.6,1.7,1.3
			c0.2,0.9-0.2,1.7-1,2.1c-0.5,0.2-1,0.2-1.5,0.1c-0.1,0.3-0.2,0.6-0.2,0.9c0,0.3,0,0.5,0.1,0.8c0.8,0,1.7,0.4,2.2,1
			c0.8,1,0.9,2.4,0.2,3.5c-0.6,0.8-1.6,1.3-2.6,1.2c-0.1,0.4-0.1,0.7-0.1,1.1c0,0.4,0.2,0.7,0.4,1c2.4-1,3.2-0.9,3.5-0.6
			s0.4,0.7,0.6,1.2c0.1,0.2,0.2,0.3,0.2,0.4c0.1,0.2,0.2,0.4,0.3,0.6c0.1,0.2,0.1,0.4,0.1,0.7c0,0.3,0,0.6-0.1,0.8
			c-0.2,0.5-0.8,0.6-1.4,0.7c0.3,0.6,0.6,1.1,1,1.7c0.1,0,0.3,0,0.4,0c0.9,0.1,1.1,1.3,1.6,2.3c0.8,0.7,1.7,1.4,2.6,1.9H25
			c0.7,0.2,1.3,0.3,2,0.3c0.9,0,1.3,0,1.7,0.4c0.4,0.3,0.5,0.7,0.3,1.2c0.5,0.2,1,0.3,1.5,0.5c0.3-0.1,0.5,0.1,0.8,0.3
			c0.5,0.1,1,0.3,1.5,0.4c0.3,0,0.5-0.1,0.8-0.1c0.6,0,1.3,0.1,1.8,0.5l0,0c0.5,0.1,1.3,0.1,2.3,0.1c4.1,0.1,7.5,0.2,9.2-1.5
			c0.1-0.1,1.5-1.5,2.2-1.2c0.1,0.1,0.2,0.1,0.3,0.1c0.4,0,0.8-0.4,1.1-0.8s0.5-0.7,0.6-0.7s0.1,0.1,0.2,0.3s0.1,1.2,0.6,1.5
			c0.1,0.1,0.3,0.1,1.4-0.2c0.5-0.1,0.8-0.3,1.1-0.3c-1.7-1.1-2.8-2.1-2.7-2.4c0.2-0.2,0.4-0.4,0.6-0.6c0.6-0.5,1.4-0.9,2.2-1
			c0.3,0,0.7,0,1,0.2l2.4,1.6c0,0,0.1,0.1,0.1,0.1c0.5,0.2,1.2-0.8,1.5-1.1c0.3-0.3,0.5-0.7,0.7-1.1c-2.4-0.7-3-1.1-3-1.4
			s0.1-0.2,0.2-0.4c0.1-0.2,0.1-0.5,0.1-0.7c0-0.9-0.2-0.9-0.1-1.2c0.1-0.3,0.2-0.6,0.4-0.8c0.2-0.3,0.4-0.3,0.9-0.8
			c0.2-0.2,0.4-0.4,0.4-0.4c0.4-0.4,0.4-0.5,0.5-0.5s0.5,0.3,0.9,0.8c0.6,0.7,1,1.2,1.3,1.1s0.3-0.6,0.5-1.4s0.2-1.2,0-1.4
			c-0.3-0.5-0.9-0.2-1.6-0.7c-0.4-0.3-0.7-0.7-0.8-1.2c-0.2-0.4-0.3-0.8-0.2-1.2c0.1-0.2,0.2-0.4,0.4-0.5c0.8-0.5,1.7,0.1,2.1-0.4
			c0.1-0.2,0.2-0.4,0.2-0.6c0.1-0.9-0.2-1.7-0.6-1.9c-0.2-0.1-0.5,0-0.7,0.1c-0.5,0.1-0.9,0.4-1.2,0.8c0.1-0.2,0.1-0.4,0.2-0.6
			C60.3,79,60.4,78.6,60.4,78.3z M26.1,82.4c-0.1-0.6,0-1.2,0.2-1.7c0.5-0.7,1.2-1.3,2.1-1.5c0.5-0.2,3.5-1.2,5.1,0.5
			c0.7,0.9,1,2,0.8,3.1c-0.1,2.2-2,3.9-4.2,3.8c-0.5,0-1-0.1-1.4-0.4C27.2,85.5,26.2,84.1,26.1,82.4z M53.1,77.2
			c-0.5,0.5-1.2,0.5-1.7,0c0,0,0,0,0,0c-0.3-0.4-0.8-0.7-1.3-0.9c-0.7-0.2-1.9-0.1-3.6,1.4c-0.5,0.5-1,1.1-1.3,1.7
			c0.5-0.4,1.1-0.8,1.7-1c0.8-0.3,1.7-0.3,2.5,0c0.8,0.4,1.4,1.1,1.7,2c0.5,1.4,0.2,2.9-0.8,4.1c-0.6,0.8-1.6,1.4-2.6,1.5h-0.1
			c0.3,0.2,0.5,0.3,0.6,0.3c1.1,0.6,2.4,1,3.7,1c-0.4,0.4-0.9,0.8-1.4,1C49.2,88.7,48,88.6,47,88c-0.8-0.4-1.5-0.8-2.1-1.4
			c0.3,0.6,0.6,1.2,0.8,1.9l0.2,0.6l-0.6,0.2c-0.8,0.3-1.5,0.8-2,1.4c-1.3,1.4-1.4,3.6-1.5,4.9c-0.1,1-0.1,1.8-0.9,1.9h-0.1
			c-0.7,0-0.9-0.7-1.2-1.4l0,0c-0.6-1.8-1.3-3.5-2.3-5c-0.6-0.7-1.5-1.1-2.4-1.3l-0.5-0.1v-0.6c0-0.6,0-1.2,0.2-1.9
			c-0.7,0.8-1.5,1.3-2.5,1.5c-1.4,0.3-2.8,0-4-0.7c1.3,0.1,2.6-0.2,3.7-0.8c1-0.6,1.7-1.5,2.2-2.6c0.5-0.8,0.8-1.8,0.8-2.8
			c0.1-1-0.2-2-0.8-2.8c-0.6-0.5-1.3-0.8-2-1c-1.1-0.6-2.4-0.8-3.7-0.6c-0.8,0.2-1.6,0.6-2.3,1.2c-0.5,0.3-1.1,0.1-1.5-0.3
			c-0.2-0.6,0.1-1.3,0.7-1.5c0,0,0.1,0,0.1,0c0.8-0.6,1.6-1,2.5-1.2c1.6-0.2,3.3,0,4.8,0.7c1,0.2,2,0.7,2.8,1.4
			c1,1.2,1.5,2.7,1.4,4.2c0,0.7-0.1,1.3-0.3,2c0.4-0.3,0.8-0.6,1.2-0.8c1.4-0.5,3-0.4,4.4,0.4c0.6,0.3,1.2,0.7,1.7,1.2
			c-0.5-0.9-0.8-1.9-0.8-3c0-2.1,0.8-4,2.4-5.4c2.3-2.2,4.2-2.2,5.4-1.9c0.9,0.3,1.7,0.8,2.3,1.6C53.2,76.3,53.3,76.8,53.1,77.2
			L53.1,77.2z"/>
		<path class="st0" d="M31.3,82.8c0.3-0.1,0.5-0.4,0.5-0.7s-0.4-0.5-0.7-0.5c-0.3,0-0.5,0.3-0.5,0.6C30.6,82.5,30.9,82.8,31.3,82.8z
			"/>
		<path class="st0" d="M41.2,84.8c-1-0.5-2.1-0.6-3.1-0.3c-1.5,0.8-2.4,2.3-2.4,4c1,0.3,1.9,0.8,2.6,1.6c0.2,0.3,0.7,0.8,2.1,4.1
			c0.1-1.7,0.7-3.2,1.8-4.5c0.6-0.6,1.2-1.1,2-1.5C43.6,86.7,42.6,85.5,41.2,84.8z"/>
		<ellipse class="st0" cx="45.6" cy="81.6" rx="0.6" ry="0.6"/>
		<path class="st0" d="M508.4,191.2c-0.5,0.2-1.1,0.4-1.6,0.6c-0.9,0.5-1.8,1-2.6,1.7c-0.9,0.8-1.9,1.6-2.9,2.5s-2.1,1.8-3.1,2.6
			c-0.9,0.8-2,1.5-3.1,2c0.3-2.9,0.2-5.8-0.2-8.7c-0.4-3-0.8-5.8-1.3-8.6c-0.1-0.4-0.4-0.7-0.7-1c-0.4-0.4-0.8-0.7-1.3-1
			c-0.4-0.3-0.9-0.4-1.4-0.5c-0.4-0.1-0.8,0.1-1,0.5c-1.5,2.7-3.2,5.2-5.1,7.6l-0.9,1c-0.6,0-1.3-0.1-1.8-0.5
			c-0.5-0.3-1-0.6-1.5-0.7c-0.6-0.1-1.2-0.3-1.9-0.4c-0.6-0.1-1.3-0.3-1.8-0.6c-0.1-1-0.4-2.1-0.7-3.1c-0.2-0.5-0.5-0.9-0.9-1.2
			c-1-0.7-2.1-1.4-3.1-2.2c-0.5-0.3-1-0.4-1.5-0.2c-1.5,0.5-2.9,1.1-4.2,2c-1.3,0.8-2.5,1.9-3.6,3c-1.1,1.2-2,2.5-2.8,3.9
			c-0.5,0.8-0.9,1.7-1.2,2.6l-1.3,1.1c-1.4,1.1-2.8,2.3-4.2,3.4s-2.9,2.1-4.3,3.1s-2.8,1.7-4.1,2.3c-0.2-0.5-0.2-1,0-1.4
			c0.2-0.8,0.5-1.7,0.8-2.5c0.4-1,0.8-2,1.3-3.2l1.4-3.4c0.5-1.1,0.9-2.2,1.3-3.3c0.4-0.9,0.7-1.9,0.9-2.8c0-0.4-0.1-0.8-0.4-1.1
			c-0.3-0.4-0.7-0.6-1.1-0.9c-0.4-0.2-0.9-0.4-1.3-0.5c-0.3-0.1-0.7-0.1-1,0c-0.8,0.5-1.6,1.1-2.4,1.8c-0.9,0.8-1.8,1.7-2.8,2.6
			s-2,2-2.9,3.1l-2.8,3.1c0.6-1.2,1.1-2.4,1.6-3.7c0.3-0.8,0.6-1.5,0.8-2.3c0.1-0.4-0.1-0.9-0.4-1.2c-0.3-0.3-0.8-0.6-1.2-0.7
			c-0.5-0.2-1-0.2-1.5-0.2c-0.4,0-0.7,0.1-1,0.2c-1.1,0.9-2.1,1.7-3.1,2.5s-1.9,1.6-2.9,2.5s-1.9,1.8-2.9,2.9s-2,2.2-3.1,3.5
			c1.1-2.3,2.4-4.6,3.9-6.7c1.5-2.1,2.9-4.1,4.5-6.2c0.3-0.3,0.2-0.8-0.1-1.1c-0.3-0.4-0.8-0.8-1.3-1c-0.5-0.3-1-0.4-1.6-0.5
			c-0.4-0.1-0.8,0-1.2,0.2c-0.3,0.3-0.8,0.8-1.5,1.7s-1.5,1.9-2.5,2.9l-2.7,3c-0.5,0.6-0.9,1-1.3,1.4l-2,1.6c-1,0.8-2,1.6-3.1,2.5
			c-1.1,0.9-2.2,1.7-3.4,2.5c-1,0.7-2,1.4-3,2v-0.5c0-0.1,0-0.3,0.1-0.4c0.3-1.3,0.7-2.5,1.2-3.7c0.6-1.5,1.3-3,2.1-4.6
			s1.5-2.9,2.1-4.1c0.4-0.8,0.9-1.5,1.4-2.3c0.3-0.4,0.3-0.9,0-1.3c-0.3-0.5-0.7-1-1.3-1.3c-0.5-0.3-1.1-0.6-1.7-0.7
			c-0.5-0.1-1,0-1.3,0.4l-1.2,1.8c-0.8-0.9-1.7-1.6-2.7-2.1c-0.9-0.4-1.9-0.5-2.9-0.2c-1.2,0.3-2.4,0.9-3.4,1.6
			c-1.5,1.1-2.9,2.3-4.3,3.6c-1.6,1.5-3.1,3.2-4.4,5c-1.4,1.3-2.9,2.6-4.6,4.1c-2.4,2.1-4.8,4.2-7.2,6.2c0-0.2-0.1-0.4-0.1-0.6
			c-0.1-0.2-0.1-0.4-0.2-0.6c-0.2-0.3-0.3-0.5-0.5-0.7c-0.2-0.2-0.4-0.4-0.6-0.7c1.7-1.7,3.2-3.6,4.4-5.6c0.9-1.3,1.5-2.9,1.8-4.4
			c0-0.7-0.3-1.4-0.7-2c-0.5-0.7-1.1-1.3-1.7-1.9c-0.7-0.6-1.4-1-2.2-1.3c-0.7-0.3-1.5-0.3-2.2-0.2c-1.1,0.3-2.1,0.8-3.1,1.4
			c-1.2,0.7-2.4,1.5-3.5,2.3c-1.2,0.9-2.4,1.8-3.6,2.9l-1.1,1c-0.3,0.2-0.6,0.5-1,0.8c-0.8,0.6-1.6,1.3-2.5,2
			c-0.9,0.7-1.8,1.3-2.7,1.8c-0.6,0.4-1.4,0.7-2.2,0.7c-0.4,0-0.6-0.6-0.6-1.6c0-1.2,0.1-2.4,0.3-3.6c0.2-1.4,0.5-2.7,0.7-4.1
			s0.5-2.4,0.6-3.2c0-0.5-0.2-0.9-0.6-1.2c-0.5-0.4-1-0.8-1.6-1.1c-0.6-0.3-1.2-0.5-1.9-0.7c-0.5-0.2-1-0.2-1.5-0.1
			c-0.7,0.3-1.4,0.7-2,1.2c-0.8,0.6-1.6,1.2-2.5,1.9s-1.7,1.5-2.5,2.4s-1.6,1.6-2.2,2.3l1.7-7c0-0.5-0.2-0.9-0.5-1.2
			c-0.4-0.5-0.8-0.8-1.3-1.1c-0.5-0.3-1-0.5-1.6-0.6c-0.4-0.1-0.9,0.1-1.1,0.4c-0.6,1.1-1.3,2.1-2,3.2c-0.9,1.2-1.8,2.5-2.9,3.8
			c-1,1.3-2.1,2.6-3.2,3.9l-0.6,0.7h-0.1l-2.2,1.8c-1,0.8-2,1.6-3.1,2.5c-1.1,0.9-2.2,1.7-3.4,2.5c-1,0.7-2,1.4-3,2v-0.5
			c0-0.1,0-0.3,0.1-0.4c0.3-1.3,0.7-2.5,1.2-3.7c0.6-1.5,1.3-3,2.1-4.6s1.5-2.9,2.1-4.1c0.4-0.8,0.9-1.5,1.4-2.3
			c0.3-0.4,0.3-0.9,0-1.3c-0.3-0.5-0.7-1-1.3-1.3c-0.5-0.3-1.1-0.6-1.7-0.7c-0.5-0.1-1,0-1.3,0.4l-1.2,1.8c-0.8-0.9-1.7-1.6-2.7-2.1
			c-0.9-0.4-1.9-0.5-2.9-0.2c-1.2,0.3-2.4,0.9-3.4,1.6c-1.5,1.1-2.9,2.3-4.3,3.6c-1,0.9-1.8,1.8-2.5,2.6c-0.8,0-1.5,0-2.3,0
			c-1,0-2-0.1-2.9-0.2c-0.7,0-1.4-0.2-2.1-0.4c0.4-0.9,0.6-1.9,0.8-2.8c0.2-0.9,0.2-1.8,0.1-2.7c-0.1-0.5-0.3-1-0.6-1.4
			c-0.3-0.5-0.7-0.9-1.2-1.3c-0.4-0.4-0.9-0.6-1.5-0.8c-0.4-0.2-0.9-0.1-1.3,0.1c-0.5,0.4-0.9,1-1.1,1.6c-0.3,0.7-0.6,1.5-0.7,2.3
			c-0.1,0.9-0.2,1.7-0.1,2.6c0.1,0.9,0.3,1.8,0.8,2.5c-1.8,2.3-3.7,4.4-5.7,6.5c-2.4,2.3-4.9,4.5-7.6,6.4c0.7-2.7,1.6-5.3,2.8-7.7
			c1.2-2.4,2.5-4.6,4.1-6.8c0.2-0.4,0.2-0.8,0.1-1.2c-0.1-0.5-0.3-0.9-0.6-1.3c-0.3-0.4-0.6-0.7-1-0.9c-0.3-0.2-0.7-0.2-1-0.1
			c-1.1,0.6-2.2,1.3-3.1,2.1c-0.7,0.6-1.4,1.2-2.1,1.8c-0.1,0.1-0.3,0.2-0.4,0.2l-1.1,0.4c-0.4,0.1-0.7,0.2-1,0.4
			c-0.4,0.2-0.8,0.4-1.2,0.7l-2.5,2c-1.1,0.9-2.2,1.8-3.5,2.7c-1.2,0.9-2.5,1.9-3.7,2.8c-1.1,0.8-2.2,1.5-3.4,2.2v-0.5
			c0-0.2,0-0.3,0.1-0.4c0.3-1.4,0.7-2.8,1.3-4.1c0.7-1.7,1.5-3.4,2.3-5.1c0.8-1.7,1.6-3.2,2.4-4.6c0.5-0.9,1-1.7,1.6-2.5
			c0.3-0.4,0.3-1,0-1.4c-0.3-0.6-0.8-1.1-1.4-1.4c-0.6-0.4-1.2-0.7-1.9-0.8c-0.5-0.2-1.1,0-1.4,0.4l-1.3,2c-0.9-1-1.9-1.7-3-2.3
			c-1-0.4-2.1-0.5-3.2-0.3c-1.4,0.4-2.6,1-3.8,1.8c-1.7,1.2-3.3,2.5-4.8,4c-1.9,1.8-3.7,3.8-5.1,6c-1.1,1.6-2,3.4-2.7,5.3
			c-0.5,1.4-0.8,2.9-0.7,4.4c0,1.1,0.2,2.2,0.7,3.2c2,4.1,5,4.9,8.9,2.5c1.3-0.8,2.4-1.8,3.4-3.1c1.2-1.4,2.3-2.9,3.5-4.6
			c-0.4,1.3-0.2,2.6,0.4,3.7c0.7,1.1,2,1.8,4.1,2.4c1.1,0.3,2.3,0.3,3.4-0.1c1.1-0.5,2.2-1.1,3.2-1.9c1-0.8,2-1.7,2.8-2.7
			c0.9-1,1.6-1.9,2.4-2.6s1.2-1.4,1.9-2.1c0.2-0.1,0.4-0.2,0.6-0.3c1-0.4,2-0.8,3-1.1c-0.6,1.3-1.2,2.5-1.7,3.7s-1,2.3-1.4,3.4
			s-0.7,2.1-0.9,2.9c-0.2,0.7-0.3,1.4-0.4,2.1c0,0.5,0.2,1,0.5,1.4c0.3,0.5,0.7,0.9,1.2,1.3c0.5,0.4,1,0.6,1.6,0.7
			c0.6,0.1,1.1,0.1,1.6-0.2c1.7-1,3.4-2.1,5-3.2c1.7-1.2,3.3-2.6,4.8-4c1.5-1.4,2.9-2.9,4.2-4.5c1.2-1.5,2.3-3,3.3-4.7
			c1.4,0.7,3,0.9,4.5,0.8c0.6-0.1,1.2-0.1,1.9-0.3c-0.9,1.3-1.6,2.7-2.1,4.2c-0.5,1.3-0.7,2.6-0.7,3.9c0,1,0.2,2,0.6,2.9
			c1.8,3.6,4.4,4.4,8,2.3c1.1-0.7,2.2-1.7,3-2.7c1.1-1.2,2.1-2.6,3.1-4.1c-0.3,1.1-0.2,2.3,0.4,3.4c0.6,0.9,1.8,1.6,3.7,2.1
			c1,0.3,2.1,0.3,3-0.1c1-0.4,2-1,2.9-1.7c0.9-0.7,1.8-1.5,2.5-2.4c0.8-0.9,1.5-1.7,2.1-2.3c1.3-1.5,2.6-3,3.9-4.5h0
			c1.4-0.8,2.5-1.5,3.6-2.1c-0.6,1.6-1.2,3.1-1.9,4.6c-0.7,1.4-1.4,2.8-2.4,4.1l-1.4,1.8c-0.3,0.3-0.3,0.8,0,1.2
			c0.3,0.5,0.7,0.9,1.3,1.3c0.5,0.4,1.1,0.6,1.7,0.7c0.5,0.1,1,0,1.4-0.3l1.2-1.3c0.8-1,1.8-2.1,3-3.4c1.2-1.3,2.4-2.6,3.8-4
			c1.3-1.4,2.7-2.7,4.1-4.1s2.7-2.5,3.9-3.6c-0.1,1.7-0.1,3.3,0,5c0,1.5,0.4,3,1,4.3c0.3,0.5,0.6,1,1,1.4c0.5,0.5,1,1,1.6,1.5
			c0.6,0.5,1.1,0.9,1.8,1.2c0.5,0.3,1,0.5,1.6,0.6c1.1-0.1,2-0.5,2.8-1.3c1.2-0.9,2.2-2,3.2-3.1c1.1-1.2,2.2-2.6,3.2-4l0.6-0.8
			l0.2-0.1c0.4-0.2,0.8-0.5,1.1-0.7c1.6-1.2,3.4-2.2,5.3-2.9c1.1-0.5,2.2-0.8,3.4-0.9c0,0.2-0.1,0.4-0.2,0.6
			c-0.1,0.2-0.2,0.4-0.3,0.6c-1,1.6-2.1,3.1-3.4,4.6c-1.4,1.6-3,3.2-4.6,4.6c-1.4,0.4-2.7,0.9-3.8,1.7c-1.1,0.6-2,1.5-2.7,2.6
			c-0.2,0.3-0.2,0.8,0,1.1c0.2,0.4,0.6,0.7,0.9,0.9c0.4,0.3,0.9,0.5,1.3,0.7c0.3,0.2,0.7,0.2,1.1,0.2c1.3-0.3,2.5-0.8,3.7-1.4
			c1.3-0.7,2.5-1.5,3.6-2.4c-0.1,0.3-0.2,0.5-0.2,0.8c0,0.3,0,0.4,0,0.4c-0.3,0.8-0.6,1.5-1,2.3c-0.3,0.7-0.7,1.3-1,1.9l-3,2.5
			c-2.2,1.7-4.1,3.2-5.8,4.5c-1.5,1.2-2.7,2.7-3.4,4.5c-0.3,0.6-0.2,1.3,0.1,1.9c0.3,0.5,0.8,0.9,1.3,1.1c0.6,0.3,1.1,0.4,1.8,0.5
			c0.5,0.1,1,0,1.4-0.1c1.7-0.7,3.2-1.8,4.4-3.1c1.7-1.8,3.3-3.8,4.6-5.9c0.3-0.4,0.6-0.8,0.9-1.3s0.7-0.9,1.1-1.4
			c1.3-1.1,2.8-2.5,4.6-4.1s3.5-3.2,5.1-4.7c0.7-0.7,1.4-1.4,2.1-2c0,0.3-0.1,0.7-0.1,1c0,1,0.2,2,0.6,2.9c1.8,3.6,4.4,4.4,8,2.3
			c1.2-0.7,2.2-1.6,3-2.7c1-1.3,2.1-2.6,3.1-4.1c-0.3,1.1-0.2,2.3,0.4,3.4c0.6,0.9,1.8,1.6,3.7,2.1c1,0.3,2,0.3,3-0.1
			c1-0.4,2-1,2.9-1.7c0.9-0.7,1.8-1.5,2.5-2.4c0.8-0.9,1.5-1.7,2.1-2.3s1.1-1.3,1.6-1.9c-0.3,0.7-0.6,1.5-0.8,2.2
			c-0.3,1-0.5,2-0.7,3c-0.2,1.1-0.4,2.3-0.5,3.6c0,0.4,0.1,0.8,0.4,1.1c0.3,0.4,0.7,0.7,1.2,0.9c0.4,0.2,0.9,0.4,1.4,0.4
			c0.4,0,0.9-0.2,1.2-0.5c0.8-1.1,1.8-2.3,3-3.6c1.2-1.3,2.3-2.6,3.4-3.8c1.1-1.2,2.1-2.3,3.1-3.2c0.6-0.6,1.3-1.2,2-1.6
			c-0.2,0.7-0.4,1.3-0.6,1.8s-0.4,1-0.5,1.6l-0.5,1.6c-0.1,0.6-0.3,1.2-0.5,1.8c-0.1,0.5-0.1,0.9,0.1,1.4c0.2,0.5,0.4,0.9,0.7,1.3
			c0.3,0.4,0.6,0.6,1,0.9c0.3,0.2,0.7,0.1,0.9-0.2c0.7-0.8,1.6-1.8,2.6-3s2-2.5,3-3.7s2-2.3,2.9-3.2c0.6-0.7,1.2-1.2,2-1.6
			c-0.4,0.6-0.7,1.3-1,2c-0.3,0.9-0.6,1.8-0.9,2.8c-0.3,1-0.4,1.9-0.5,2.9c-0.1,0.9,0,1.7,0.3,2.6c0.2,0.5,0.6,0.9,1.1,1.2
			c0.6,0.4,1.2,0.8,1.8,1.1c0.6,0.3,1.3,0.5,2,0.7c0.4,0.2,0.9,0.2,1.3,0.1c1.2-0.5,2.4-1.2,3.4-2c1.3-1,2.6-2.1,3.8-3.3
			c1-1,1.9-2,2.8-3.1c-0.1,1.1-0.1,2.2,0,3.2c0.2,1,0.6,2,1.2,2.9c0.7,0.9,1.6,1.6,2.7,2.1c0.9,0.4,2,0.6,3,0.4c1-0.2,2-0.5,2.9-1
			c0.9-0.6,1.8-1.2,2.5-2c0.8-0.8,1.5-1.6,2.1-2.3c1.1-1.3,2.1-2.7,2.9-4.2c0.9-1.5,1.5-3.2,1.9-4.9c1.3,0.3,2.6,0.3,3.9,0.1
			c0.8-0.1,1.6-0.3,2.3-0.5c-0.6,0.7-1.1,1.2-1.5,1.6c-0.3,0.3-0.5,0.6-0.6,0.9l-0.5,1.4c-0.2,0.5-0.4,1.1-0.7,1.6
			c-0.3,0.5-0.6,1.1-0.9,1.5c-0.3,0.4-0.6,0.9-0.7,1.4c0,0.4,0.3,0.3,1-0.3c1.7-1.4,3.7-3,5.8-4.8c2.1-1.8,4.1-3.7,6-5.8
			c0.2,1.5,0.3,2.9,0.4,4.3s0.1,2.9,0,4.3v2.2c0,0.8-0.1,1.6-0.2,2.4c-0.6,0.1-1.3,0.2-1.9,0.2c-0.6,0-1.3,0-2.1-0.1l-1.1-0.2
			c-0.5-0.1-0.9-0.1-1.4-0.1c-0.5,0-0.9,0-1.4,0c-0.4,0-0.7,0.1-1,0.4c-0.4,0.2-0.6,0.6-0.7,1.1c0,0.4,0,0.9,0.1,1.3
			c0.1,0.5,0.3,0.9,0.6,1.3c0.2,0.4,0.5,0.7,0.8,1c0.9,0.9,2,1.6,3.2,2.1c1.1,0.4,2.3,0.7,3.5,0.6c1.1,0,2.2-0.4,3.1-1
			c1-0.7,1.8-1.7,2.2-2.8c1.5-0.6,2.9-1.4,4.1-2.4c1.4-1.1,2.8-2.3,4.1-3.6c1.4-1.3,2.7-2.7,4.1-4.3s2.7-3,3.9-4.5
			c0.7-0.8,1-1.2,0.9-1.4s-0.6,0.1-1.4,0.7C509.4,190.7,508.9,191,508.4,191.2z M256.8,190.3c-2.1,2.7-4.2,5.3-6.5,7.7
			c-1.8,1.9-3.1,3.2-3.9,4c-0.8,0.8-1.4,0.9-1.7,0.4c-0.2-0.9-0.1-1.8,0.4-2.6c0.5-1.3,1.1-2.5,1.9-3.7c0.8-1.3,1.6-2.6,2.5-3.9
			s1.7-2.3,2.4-3.1c0.6-0.6,1.2-1.2,1.8-1.7c0.9-0.8,1.9-1.6,3-2.5c1-0.8,2.1-1.5,3.3-2.2c0.8-0.5,1.8-0.8,2.8-0.7
			C260.8,184.8,258.9,187.6,256.8,190.3L256.8,190.3z M314.8,192.1c-1.9,2.4-3.8,4.8-5.8,6.9c-1.6,1.7-2.8,2.9-3.5,3.6
			c-0.7,0.7-1.2,0.8-1.5,0.4c-0.2-0.8-0.1-1.6,0.3-2.3c0.5-1.2,1-2.3,1.7-3.4c0.7-1.2,1.5-2.4,2.3-3.5s1.5-2,2.1-2.8
			c0.5-0.6,1-1.1,1.6-1.6c0.8-0.7,1.7-1.5,2.7-2.2c0.9-0.7,1.9-1.4,2.9-2c0.7-0.5,1.6-0.7,2.5-0.7
			C318.4,187.2,316.7,189.7,314.8,192.1L314.8,192.1z M401.6,192.1c-1.8,2.4-3.8,4.8-5.8,6.9c-1.6,1.7-2.8,2.9-3.5,3.6
			s-1.2,0.8-1.5,0.4c-0.2-0.8-0.1-1.6,0.3-2.3c0.5-1.2,1-2.3,1.7-3.4c0.7-1.2,1.5-2.4,2.3-3.5s1.5-2,2.1-2.8c0.5-0.6,1-1.1,1.6-1.6
			c0.8-0.7,1.7-1.5,2.7-2.2c0.9-0.7,1.9-1.4,2.9-2c0.7-0.5,1.6-0.7,2.5-0.7C405.2,187.2,403.4,189.7,401.6,192.1L401.6,192.1z
			 M470.7,193.2c-0.7,1.1-1.4,2.1-2,3s-1.3,1.7-1.8,2.4s-0.9,1.1-1.1,1.3c-0.7,0.8-1.5,1.5-2.3,2.1c-0.4,0.3-0.9,0.5-1.5,0.5
			c-0.4-0.1-0.7-0.4-0.8-0.9c-0.2-0.6-0.2-1.3-0.2-1.9c0.1-1.1,0.3-2.2,0.7-3.2c0.4-1,0.8-2,1.3-3c0.8-1.6,1.7-3,2.9-4.3
			c1.2-1.3,2.5-2.5,4.1-3.4c0.1,1.7,1,3.2,2.4,4.1C471.9,191,471.4,192.2,470.7,193.2L470.7,193.2z"/>
		<path class="st0" d="M701.2,189.9c-0.6,0.1-1.3-0.1-1.8-0.5c-0.5-0.3-1-0.6-1.5-0.7c-0.6-0.1-1.2-0.3-1.9-0.4
			c-0.6-0.1-1.3-0.3-1.8-0.6c-0.1-1-0.4-2.1-0.7-3.1c-0.2-0.5-0.5-0.9-0.9-1.2c-1-0.7-2.1-1.4-3.1-2.2c-0.4-0.3-0.9-0.4-1.5-0.3
			c-1.5,0.5-2.9,1.1-4.2,2c-1.3,0.8-2.5,1.9-3.6,3c-1.1,1.2-2,2.5-2.8,3.9c-1.4,0.7-2.9,1.4-4.4,2.3c-1.7,1-3.4,2.1-5.1,3.2l1.4-5.8
			c0.2-0.7,0.2-1.4,0.2-2.1c0-0.6-0.2-1.2-0.7-1.6c-0.3-0.2-0.5-0.5-0.8-0.8c-0.2-0.3-0.5-0.6-0.7-0.9c-0.2-0.2-0.3-0.4-0.5-0.6
			c-0.2-0.1-0.3,0-0.5,0.2c-2.5,3.1-5,6.2-7.7,9.4c-2.6,3.1-5.6,5.9-8.8,8.4c-0.3-0.7-0.4-1.5-0.3-2.3c0.1-0.8,0.3-1.7,0.6-2.5
			c0.3-0.8,0.7-1.6,1.2-2.3c0.4-0.7,0.8-1.3,1.3-1.9c1.2-1.6,2.7-3,4.4-4.2c1.6-1.2,3.5-2,5.5-2.4c0.6,0,0.8-0.3,0.7-0.7
			c-0.1-0.5-0.4-0.9-0.8-1.3c-0.4-0.4-0.9-0.8-1.5-1.1c-0.4-0.3-1-0.4-1.5-0.4c-1.9,0.3-3.7,0.9-5.4,1.8c-1.7,0.9-3.3,2-4.7,3.3
			c-1.1,1.1-2.1,2.3-2.9,3.6l-2,1.7c-1.4,1.2-2.8,2.4-4.1,3.5s-2.7,2.2-4,3.2c-1.1,0.9-2.3,1.6-3.5,2.3c-0.2-1.2-0.1-2.4,0.3-3.5
			c0.5-1.7,1.1-3.5,1.8-5.4s1.5-3.8,2.3-5.6s1.3-3.2,1.7-4.1c0.2-0.7,0-1.5-0.7-2c-1-0.7-2.2-1-3.3-0.8c-0.5,0-1,0.2-1.3,0.5
			c-0.7,0.6-1.3,1.3-1.9,2c-0.8,0.9-1.7,1.9-2.6,3.1s-1.9,2.4-2.9,3.8c-0.3,0.4-0.6,0.9-0.9,1.3c-0.6,0.7-1.3,1.3-2.1,2
			c-1.4,1.3-2.8,2.6-4.2,3.7c-1.4,1.1-2.7,2.1-4,3c-0.8,0.6-1.7,1.1-2.7,1.5c-0.6,0.2-1.3,0.1-1.9-0.2c-0.6-0.3-0.9-1.1-0.9-2.3
			c0-1.3,0.2-2.6,0.5-3.8c0.3-1.5,0.7-2.9,1.1-4.3l0.5-1.7c0.9-1.1,1.8-2.3,2.7-3.4s1.7-2.3,2.6-3.5c0.5-0.7,1-1.4,1.5-2.1
			s1-1.4,1.6-2.1c0.3,0,0.5,0,0.8-0.1c1-0.1,2.1-0.2,3.3-0.2l3.6-0.1c1.2,0,2.3-0.1,3.3-0.1c0.9-0.1,1.8-0.2,2.7-0.4
			c0.3,0,0.7-0.1,1-0.3c0.3-0.1,0.5-0.3,0.7-0.5c0.2-0.2,0.5-0.4,0.8-0.6c0.4-0.3,0.9-0.5,1.3-0.7c0.3-0.1,0.6-0.2,1-0.4l0.8-0.3
			c-0.1,0.5-0.2,1.1-0.2,1.7c0,0.4,0.1,0.7,0.4,0.7s0.6-0.1,0.9-0.4c0.6-0.6,1.2-1.1,2-1.5c0.7-0.3,1.3-0.7,1.8-1
			c0.5-0.3,1-0.6,1.4-1.1c0.4-0.5,0.7-1.1,0.7-1.7c0.1-0.7,0-1.1-0.3-1.2c-0.4-0.1-0.8-0.1-1.2,0c-0.6,0.1-1.1,0.3-1.7,0.5
			c-0.5,0.2-1.1,0.4-1.7,0.5c-0.3,0-0.6,0.1-0.8,0.4c-0.2,0.2-0.3,0.4-0.4,0.5c-0.4,0.7-0.7,1.5-0.9,2.3h-0.1c-2.5,0-5.2,0-8.1,0
			c-2.9,0-5.7,0.1-8.4,0.2c1-1.5,1.9-3.1,2.7-4.6c0.8-1.6,1.5-3.2,2.1-4.9c0.1-0.4-0.1-0.9-0.4-1.3c-0.4-0.5-0.8-0.9-1.4-1.1
			c-0.7-0.3-1.4-0.3-2.1-0.2c-0.9,0.2-1.8,0.7-2.4,1.4c-3.3,3.4-6.3,7.2-8.8,11.2c-1.1,0.1-2.2,0.3-3.3,0.5
			c-1.1,0.2-2.1,0.5-3.2,0.9c-0.4-0.2-0.9-0.2-1.3-0.2c-0.3,0-0.7,0.2-0.8,0.6c-1.4,1-2.1,1.8-2,2.3c-0.1,0.4,0,0.9,0.3,1.2
			c0.3,0.4,0.7,0.8,1.2,1.1c0.4,0.3,0.9,0.5,1.5,0.7c0.4,0.1,0.9,0.1,1.2-0.2c1.1-0.9,2.4-1.5,3.7-2c-0.7,1.4-1.4,2.8-2,4.3
			c-0.5,1.4-1,2.9-1.5,4.3c-0.8,1-1.5,2-2.2,3c-0.5,0.3-0.9,0.6-1.3,1c-0.8,0.6-1.6,1.3-2.5,2c-0.9,0.7-1.8,1.3-2.7,1.8
			c-0.6,0.4-1.4,0.7-2.2,0.7c-0.4,0-0.6-0.6-0.6-1.6c0-1.2,0.1-2.4,0.3-3.6c0.2-1.4,0.5-2.7,0.7-4.1s0.5-2.4,0.6-3.2
			c0-0.5-0.2-0.9-0.6-1.2c-0.5-0.4-1-0.8-1.6-1.1c-0.6-0.3-1.2-0.5-1.9-0.7c-0.5-0.2-1-0.2-1.5-0.1c-0.7,0.3-1.4,0.6-2,1.1
			c-0.8,0.6-1.6,1.2-2.5,1.9c-0.9,0.7-1.7,1.5-2.5,2.4s-1.6,1.6-2.2,2.3l1.7-7c0-0.5-0.2-0.9-0.5-1.2c-0.4-0.5-0.8-0.8-1.3-1.1
			c-0.5-0.3-1-0.5-1.6-0.6c-0.4-0.1-0.9,0.1-1.1,0.4c-0.6,1.1-1.3,2.1-2,3.2c-0.9,1.2-1.8,2.5-2.8,3.8c-0.9,1.2-1.9,2.3-2.8,3.5
			c-0.6,0-1.3-0.1-1.8-0.5c-0.5-0.3-1-0.6-1.5-0.7c-0.6-0.1-1.2-0.3-1.9-0.4c-0.6-0.1-1.3-0.3-1.8-0.6c-0.1-1-0.3-2.1-0.7-3.1
			c-0.2-0.5-0.5-0.9-0.9-1.2c-0.5-0.5-1-0.9-1.7-1.2c-0.4-0.4-0.9-0.8-1.5-1.1c-0.4-0.3-0.9-0.4-1.5-0.3c-1.5,0.5-2.9,1.1-4.2,2
			c-1.3,0.8-2.5,1.9-3.5,3c-1.1,1.2-2,2.5-2.8,3.9c-0.2,0.4-0.4,0.8-0.6,1.1c-1,0.9-2.1,1.7-3.2,2.7c-1.5,1.2-3.1,2.4-4.8,3.4
			c-1.7,1-3.4,1.9-5.3,2.5c-1.8,0.7-3.7,1-5.6,1.1c-0.4-2-0.4-4,0-6c0.4-2.1,1.1-4.1,2-6c0.9-1.8,2-3.5,3.4-4.9
			c1.1-1.3,2.6-2.3,4.2-2.9c-0.1,0.6-0.3,1.1-0.5,1.6c-0.2,0.5-0.4,1-0.6,1.5c-0.2,0.4-0.4,0.9-0.5,1.3c-0.1,0.4-0.2,0.8-0.1,1.2
			c0,0.3,0.1,0.6,0.2,0.8c0.1,0.2,0.1,0.5,0.1,0.7c0,0.3,0,0.6-0.1,0.9c-0.1,0.3-0.2,0.8-0.4,1.4c-0.3,0.9-0.3,1.4-0.1,1.6
			s0.7-0.1,1.3-0.8l1.8-2.5c0.7-0.9,1.3-1.7,1.8-2.6c0.5-0.8,1-1.6,1.4-2.4c0.3-0.6,0.5-1.3,0.5-2c0-0.6-0.3-1.2-0.7-1.7
			c-0.5-0.6-1.2-1.2-1.9-1.6c-0.7-0.5-1.5-0.9-2.4-1.1c-0.7-0.3-1.5-0.3-2.2-0.1c-1.9,0.7-3.7,1.6-5.3,2.9c-1.7,1.3-3.1,2.9-4.1,4.8
			c-1.2,1.9-2,4-2.5,6.2c-0.6,2.4-0.7,4.8-0.5,7.3c0.1,0.8,0.5,1.5,1,2.1c0.6,0.7,1.3,1.4,2.1,2c0.8,0.6,1.7,1.1,2.6,1.5
			c0.8,0.3,1.6,0.5,2.4,0.6c1-0.1,2.1-0.2,3.1-0.4c1-0.2,1.9-0.5,2.8-0.9c1-0.4,2.1-0.9,3-1.5c1-0.6,1.9-1.3,2.9-2
			c0.8-0.6,1.6-1.3,2.3-2c-0.1,1-0.1,2.1,0,3.1c0.2,1,0.6,2,1.2,2.9c0.7,0.9,1.6,1.6,2.7,2.1c0.9,0.4,2,0.6,3,0.4
			c1-0.2,1.9-0.5,2.8-1c0.9-0.6,1.8-1.2,2.5-2c0.8-0.8,1.5-1.6,2.1-2.3c1.1-1.3,2.1-2.7,2.9-4.2c0.9-1.5,1.5-3.2,1.9-4.9
			c1.3,0.3,2.6,0.3,3.9,0.1c0.8-0.1,1.6-0.3,2.4-0.5c-0.9,1-1.7,1.9-2.4,2.7c-0.3,0.3-0.5,0.7-0.5,1.1c0,0.4,0.4,0.3,1.4-0.1
			c1.1-0.5,2.3-1.2,3.7-1.9s2.5-1.5,3.6-2.1c-0.6,1.6-1.2,3.1-1.9,4.6c-0.7,1.4-1.4,2.8-2.3,4.1l-1.4,1.8c-0.3,0.3-0.3,0.8,0,1.2
			c0.3,0.5,0.7,0.9,1.3,1.3c0.5,0.4,1.1,0.6,1.7,0.7c0.5,0.1,1,0,1.4-0.3l1.2-1.3c0.8-1,1.8-2.1,3-3.4c1.2-1.3,2.4-2.6,3.8-4
			c1.3-1.4,2.7-2.7,4.1-4.1c1.4-1.3,2.7-2.5,4-3.6c-0.1,1.7-0.1,3.3,0,5c0,1.5,0.4,3,1,4.3c0.3,0.5,0.6,1,1,1.4c0.5,0.5,1,1,1.6,1.5
			c0.6,0.5,1.1,0.9,1.8,1.2c0.5,0.3,1,0.5,1.6,0.6c1.1-0.1,2-0.5,2.8-1.3c1.2-0.9,2.2-2,3.2-3.1c0.5-0.5,0.9-1.1,1.4-1.7
			c0,0.3-0.1,0.6-0.1,0.9c0,0.8,0,1.6,0,2.4c0.1,1.1,0.5,2.1,1.2,2.9c0.8,0.9,1.7,1.6,2.7,2.1c1,0.6,2,1,3.1,1.3
			c0.8,0.3,1.7,0.3,2.5,0.2c0.9-0.3,1.8-0.8,2.6-1.3c1.2-0.8,2.4-1.7,3.5-2.7c1.2-1.1,2.4-2.3,3.5-3.5c1-1.2,2-2.4,2.8-3.8
			c0.1-0.3,0.2-0.7,0.1-1h0.1c0.4-0.1,0.8-0.3,1.2-0.5l2-1.6c-0.6,1.1-1.1,2.3-1.6,3.6s-0.9,2.4-1.2,3.5c-0.3,1-0.5,2-0.6,3.1
			c-0.1,0.8,0,1.5,0.3,2.3c0.3,0.6,0.8,1.1,1.4,1.4c0.7,0.4,1.4,0.7,2.2,0.9c0.7,0.2,1.4,0.3,2.2,0.4c0.5,0.1,1,0,1.4-0.2
			c1-0.6,1.9-1.3,2.7-2c1.3-1,2.5-2.1,3.8-3.3s2.5-2.4,3.6-3.6l0-0.1c0,1.4,0.4,2.8,1.1,4.1c1,1.7,2.4,3.1,4.1,4.1
			c0.4,0.2,0.8,0.4,1.2,0.5c0.5,0.2,0.9,0.2,1.4,0.1c0.8-0.3,1.5-0.7,2.1-1.2c1-0.8,1.9-1.7,2.7-2.6c1-1,2-2.2,3.1-3.5
			c1.1-1.3,2.2-2.6,3.3-3.9c-0.6,1.8-1.3,3.6-2.1,5.5c-2.2,1.7-4.2,3.5-6.1,5.3c-1.7,1.6-3.3,3.4-4.7,5.3c-1.3,1.7-2.5,3.6-3.6,5.5
			c-1.1,1.9-2.1,3.9-2.8,6c-0.7,2-1.2,4.2-1.4,6.3c-0.2,2.2,0,4.4,0.7,6.5c0.2,0.4,0.4,0.8,0.7,1.1c0.4,0.4,0.8,0.7,1.2,1
			c0.4,0.3,0.9,0.4,1.4,0.5c0.4,0.1,0.8-0.1,1.1-0.5c2.3-2.9,4.4-6,6.2-9.3c1.8-3.3,3.4-6.6,5-9.9c1.2-2.6,2.3-5.1,3.4-7.4
			c1-2.3,2-4.8,2.9-7.3c2.2-1.7,4.3-3.1,6.1-4.4c1.4-0.9,2.6-2,3.6-3.3c0.1-0.2,0.2-0.3,0.3-0.5c-0.3,0.9-0.4,1.8-0.6,2.7
			c-0.2,1.1-0.2,2.2,0,3.3c0.2,1,0.6,2,1.2,2.9c0.7,0.9,1.6,1.6,2.7,2.1c0.9,0.4,2,0.6,3,0.4c1-0.2,2-0.6,2.8-1.1
			c0.9-0.6,1.8-1.2,2.5-2c0.8-0.8,1.5-1.6,2.1-2.3c1.1-1.3,2.1-2.7,2.9-4.2c0.9-1.5,1.5-3.2,1.9-4.9c1.3,0.3,2.6,0.3,3.9,0.1
			c1.3-0.2,2.6-0.5,3.8-0.9c0.3-0.1,0.5-0.3,0.4-0.5S701.7,189.9,701.2,189.9z M558.9,193.2c-0.7,1.1-1.4,2.1-2,3s-1.3,1.7-1.8,2.4
			s-0.9,1.1-1.1,1.3c-0.7,0.8-1.5,1.5-2.3,2.1c-0.4,0.3-1,0.5-1.5,0.5c-0.4-0.1-0.7-0.4-0.8-0.9c-0.1-0.6-0.2-1.3-0.2-1.9
			c0.1-1.1,0.3-2.2,0.7-3.2c0.4-1,0.8-2,1.3-3c0.8-1.6,1.7-3,2.9-4.3c1.2-1.3,2.5-2.5,4.1-3.4c0.1,1.7,1,3.2,2.4,4.1
			C560.1,191,559.5,192.2,558.9,193.2L558.9,193.2z M654.2,216c-1,2.1-2.1,4.3-3.2,6.4s-2.2,4.1-3.5,6.1c0.4-3,1.4-5.9,2.9-8.6
			c1.5-2.7,3.1-5.3,5-7.7c0.2-0.3,0.4-0.5,0.6-0.8c0.2-0.3,0.5-0.6,0.7-0.8L654.2,216z M688.6,193.2c-0.7,1.1-1.3,2.1-2,3
			s-1.3,1.7-1.8,2.4s-0.9,1.1-1.1,1.3c-0.7,0.8-1.5,1.5-2.3,2.1c-0.4,0.3-0.9,0.5-1.5,0.5c-0.4-0.1-0.7-0.4-0.8-0.9
			c-0.2-0.6-0.2-1.3-0.2-1.9c0.1-1.1,0.3-2.2,0.7-3.2c0.4-1,0.8-2,1.3-3c0.8-1.6,1.7-3,2.9-4.3c1.2-1.3,2.5-2.5,4.1-3.4
			c0.1,1.7,1,3.2,2.4,4.1C689.8,191,689.3,192.2,688.6,193.2L688.6,193.2z"/>
	</g>
</g>
</svg>
